<svg xmlns="http://www.w3.org/2000/svg" xmlns:xlink="http://www.w3.org/1999/xlink" viewBox="0 0 470.44 228.81"><defs><style>.cls-1{fill:url(#linear-gradient);}.cls-2{fill:url(#linear-gradient-2);}.cls-3{fill:url(#linear-gradient-3);}.cls-4{fill:url(#linear-gradient-4);}.cls-5{fill:url(#linear-gradient-5);}.cls-6{fill:url(#linear-gradient-6);}.cls-7{fill:none;stroke:#0075f4;stroke-miterlimit:10;stroke-width:4px;stroke-dasharray:8 8;}.cls-8{fill:#fff;}.cls-9{fill:#0075f4;}.cls-10{fill:#0071bc;}</style><linearGradient id="linear-gradient" x1="-1847.32" y1="-1625.28" x2="-1914.16" y2="-1571.28" gradientTransform="matrix(0.87, 0.5, -1, 0.58, 314.68, 1970.65)" gradientUnits="userSpaceOnUse"><stop offset="0" stop-color="#4032a1"/><stop offset="1" stop-color="#1697bb"/></linearGradient><linearGradient id="linear-gradient-2" x1="-1934.09" y1="-1589.65" x2="-1874.42" y2="-1521.03" xlink:href="#linear-gradient"/><linearGradient id="linear-gradient-3" x1="-1861.37" y1="-1624.07" x2="-1921.68" y2="-1552.8" xlink:href="#linear-gradient"/><linearGradient id="linear-gradient-4" x1="-1846.78" y1="-1609.37" x2="-1937.13" y2="-1555.06" xlink:href="#linear-gradient"/><linearGradient id="linear-gradient-5" x1="-1903.1" y1="-1573.21" x2="-1888.63" y2="-1551.41" xlink:href="#linear-gradient"/><linearGradient id="linear-gradient-6" x1="-1919.98" y1="-1584.4" x2="-1882.06" y2="-1540.45" xlink:href="#linear-gradient"/></defs><g id="Layer_2" data-name="Layer 2"><g id="Layer_1-2" data-name="Layer 1"><path class="cls-1" d="M283.58,115.22a23.52,23.52,0,0,1-3.29,1.32h0a36.53,36.53,0,0,1-17.86.82c.36-3.71-2-7.51-7.1-10.46a30.54,30.54,0,0,0-5.37-2.39c.94-2,2.91-3.82,5.9-5.3a26.43,26.43,0,0,1,5.7-2h0c7.71-1.79,17-.89,23.08,2.61C292.3,104.26,291.82,111.14,283.58,115.22Z"/><path class="cls-2" d="M242.56,140.14,229.5,146.6a13.61,13.61,0,0,1-11.51-.25l-23.56-13.6c-3.06-1.76-2.86-4.52.43-6.15l.34-.17a29.87,29.87,0,0,0,7.88,6.31C213.53,138.78,228.45,141.28,242.56,140.14Z"/><path class="cls-3" d="M268.39,100.45a48.11,48.11,0,0,0-6.82-3.22h0a26.43,26.43,0,0,0-5.7,2c-3,1.48-5,3.33-5.9,5.3a30.54,30.54,0,0,1,5.37,2.39c5.11,3,7.46,6.75,7.1,10.46a36.53,36.53,0,0,0,17.86-.82h0C280.24,110.79,276.3,105,268.39,100.45Z"/><path class="cls-4" d="M262.43,117.37a25.53,25.53,0,0,1-7.64-2.77c-4.87-2.81-6.45-6.62-4.83-10.08a30.54,30.54,0,0,1,5.37,2.39C260.44,109.86,262.79,113.66,262.43,117.37Z"/><path class="cls-5" d="M253.92,127.1c-10.82,5.35-27.73,5-37.78-.81-3.49-2-5.69-4.43-6.62-6.94l10.16-5a28.11,28.11,0,0,1,3.59-1.48,44,44,0,0,1,18-1.92,35.91,35.91,0,0,1,14.39,4.17,14.91,14.91,0,0,1,5.79,5.45h0C260.15,123,257.63,125.26,253.92,127.1Z"/><path class="cls-6" d="M254.32,134.33l-11.76,5.81c-14.11,1.14-29-1.36-39.48-7.4a29.87,29.87,0,0,1-7.88-6.31l14.32-7.08c.93,2.51,3.13,4.92,6.62,6.94,10.05,5.8,27,6.16,37.78.81,3.71-1.84,6.23-4.11,7.52-6.54a7.64,7.64,0,0,1,.71,5.9C261.31,129.37,258.68,132.17,254.32,134.33Z"/><line class="cls-7" x1="202.19" y1="104.98" x2="122.66" y2="59.3"/><path class="cls-8" d="M203.88,101.62a3.76,3.76,0,1,1-5.13,1.38A3.76,3.76,0,0,1,203.88,101.62Z"/><path class="cls-9" d="M204.13,101.18A4.26,4.26,0,1,0,205.7,107a4.27,4.27,0,0,0-1.57-5.82Zm-3.75,6.52a3.26,3.26,0,1,1,4.45-1.2,3.26,3.26,0,0,1-4.45,1.2Z"/><path class="cls-8" d="M124.72,56.15a3.76,3.76,0,1,0,1.39,5.13A3.77,3.77,0,0,0,124.72,56.15Z"/><path class="cls-9" d="M125,55.72a4.26,4.26,0,1,1-5.82,1.57A4.26,4.26,0,0,1,125,55.72Zm-3.75,6.52a3.26,3.26,0,1,0-1.2-4.45,3.27,3.27,0,0,0,1.2,4.45Z"/><path class="cls-7" d="M266.58,142.15l41.65,24c3.64,2.1,9.77,2.24,13.7.3l12.6-6.24c3.92-1.94,10.06-1.81,13.7.3l48.22,27.84"/><path class="cls-8" d="M264.89,145.51a3.76,3.76,0,1,1,5.14-1.37A3.76,3.76,0,0,1,264.89,145.51Z"/><path class="cls-9" d="M264.64,145.94a4.26,4.26,0,1,0-1.56-5.81,4.26,4.26,0,0,0,1.56,5.81Zm3.76-6.51a3.26,3.26,0,1,1-4.45,1.2,3.27,3.27,0,0,1,4.45-1.2Z"/><path class="cls-8" d="M394.38,191.54A3.76,3.76,0,1,0,393,186.4,3.77,3.77,0,0,0,394.38,191.54Z"/><path class="cls-9" d="M394.13,192a4.26,4.26,0,1,1,5.82-1.56,4.26,4.26,0,0,1-5.82,1.56C392.1,190.79,396.17,193.14,394.13,192Zm3.76-6.51a3.26,3.26,0,1,0,1.2,4.45,3.26,3.26,0,0,0-1.2-4.45Z"/><path class="cls-7" d="M106.26,154.27l25.53-12.62c4.15-2.06,10.65-1.92,14.51.31l18.4,10.63c3.86,2.22,10.35,2.36,14.51.31l18.71-9.25"/><path class="cls-8" d="M108.12,157.54a3.76,3.76,0,1,1,1.7-5A3.76,3.76,0,0,1,108.12,157.54Z"/><path class="cls-9" d="M108.34,158a4.26,4.26,0,1,0-5.7-1.93,4.26,4.26,0,0,0,5.7,1.93ZM105,151.25a3.26,3.26,0,1,1-1.48,4.37,3.28,3.28,0,0,1,1.48-4.37C106.62,150.46,103.4,152.05,105,151.25Z"/><path class="cls-8" d="M199.39,147.12a3.76,3.76,0,1,0-5-1.71A3.76,3.76,0,0,0,199.39,147.12Z"/><path class="cls-9" d="M199.61,147.56a4.26,4.26,0,1,1,1.93-5.7,4.26,4.26,0,0,1-1.93,5.7Zm-3.33-6.74a3.26,3.26,0,1,0,4.37,1.48,3.28,3.28,0,0,0-4.37-1.48C194.67,141.62,197.89,140,196.28,140.82Z"/><path class="cls-10" d="M407.47,195.44c-1.24.7-1.61,1.56-.32,2.3a4.16,4.16,0,0,0,4.2,0c1.37-.67,1.6-1.29.88-2.55s-.73-2.12.9-2.93a5.69,5.69,0,0,1,5.11.1c1.83,1.06.88,2.1-.33,2.74l-.7-.41c.44-.27,1.84-1.12.29-2a3.86,3.86,0,0,0-3.59,0c-1.26.63-1.34,1.23-.67,2.38.86,1.53.46,2.34-1.11,3.12a6,6,0,0,1-5.69,0c-1.93-1.12-1.22-2.19.32-3.05Z"/><path class="cls-10" d="M425.43,196.64l.7.4-6,3,10.05-.61.8.46-8,.47-3.36,5.25-.83-.48,3.09-4.73-2.8.14-4.44,2.19-.7-.4Z"/><path class="cls-10" d="M435.92,202.69l-11.44,5.66-.7-.41,11.44-5.65Z"/><path class="cls-10" d="M441.3,205.8l.7.4-10.75,5.31,3.9,2.25-.85.25-4.44-2.56Z"/><path class="cls-10" d="M450.15,210.91l.7.4-10.74,5.31,3.89,2.25-.85.26-4.43-2.56Z"/><path class="cls-10" d="M450.71,220.41c-1.24.69-1.61,1.55-.32,2.3a4.19,4.19,0,0,0,4.2,0c1.37-.68,1.6-1.3.88-2.56s-.73-2.11.9-2.92a5.66,5.66,0,0,1,5.11.1c1.84,1.06.89,2.1-.33,2.73l-.7-.4c.45-.27,1.84-1.13.29-2a3.83,3.83,0,0,0-3.59,0c-1.26.62-1.34,1.22-.67,2.38.87,1.53.46,2.34-1.11,3.11a6,6,0,0,1-5.69,0c-1.93-1.11-1.22-2.19.32-3Z"/><path class="cls-10" d="M103.31,160.08l-.75.37L97,157.25c.22,1.12.82,3.74,1.16,5.37l-.85.42-.91-4.25L86.58,157l.89-.44,8.86,1.67-.27-1.5-4.12-2.38.75-.37Z"/><path class="cls-10" d="M82.15,159.16l10.61,6.13-1.05.52c-11.95-3-13.31-3.29-13.89-3.45h0q2.39,1.27,5,2.76l4.78,2.76-.76.37-10.62-6.13,1-.49c12.46,3.1,13.73,3.42,14.23,3.58h0c-1.42-.73-3.29-1.79-5.2-2.9l-4.8-2.77Z"/><path class="cls-10" d="M70,171c-3.45-2-4.75-3.6-2.38-4.78s5.13-.38,8.63,1.64,4.41,3.6,2.24,4.67S73.5,173,70,171Zm5.49-2.73c-3.35-1.94-5.7-2.43-7.26-1.66s-.81,2.06,2.51,4c3.49,2,5.58,2.33,7.12,1.57S78.68,170.12,75.45,168.26Z"/><path class="cls-10" d="M57.76,171.22l12.92,5-.79.39c-5.56-2.16-10.36-4-11.62-4.6h0c1,.71,5.45,4.82,7.52,6.64L65,179c-3.22-1.23-10.65-4-11.75-4.53l0,0c1.4,1.06,5.41,4.8,7.5,6.63l-.77.38-8.1-7.37.9-.45c3.1,1.2,10.19,3.88,11.67,4.54h0c-1.26-1-5.5-4.8-7.5-6.6Z"/><path class="cls-10" d="M55.16,183.89l-.75.37-10-5.76-4.19,2.07-.48-.45,4.77-2.36Z"/><path class="cls-10" d="M37.57,185.29l-2.81-2.69.75-.38,7.78,7.54-1,.48-13.56-4.67.81-.41,4.83,1.7Zm-2.35,1.85c3.79,1.31,6.05,2.1,6.92,2.46l0,0c-.72-.6-2.29-2.08-4.13-3.83Z"/><path class="cls-10" d="M18.39,190.69l.62-.31c.32.15.72.35,1.37.72-.38-.53-.72-1.19.86-2,2.53-1.25,5.66,0,8.51,1.65,3.52,2,4.35,3.67,2.11,4.78a6,6,0,0,1-5.5-.25l.77-.38a4.64,4.64,0,0,0,4.1.25c1.81-.89.65-2.31-2.25-4s-5.35-2.56-7.16-1.67-.73,1.93,1.91,3.46l.47.27,2.27-1.12.65.37-3,1.49Z"/><path class="cls-10" d="M13.5,198.83l3.9-1.94-4.68-2.7L8.4,196.32l-.52-.43,4.94-2.45,10.62,6.13L18.58,202l-.65-.37,4.11-2-4-2.3-3.91,1.93Z"/><path class="cls-10" d="M31.7,7.38l-3.63-2.1L23,7.78l4,2.31-.81.28L21.63,7.72,33.06,2.07l4.52,2.6-.7.34-3.81-2.2-4.3,2.13L32.39,7Z"/><path class="cls-10" d="M35.63,15.8l3-3.9h0L31.12,13.2l-.75-.43,8.56-1.44L42,7.2l.79.45-2.65,3.54h0L47,10.09l.76.44-7.91,1.21-3.4,4.52Z"/><path class="cls-10" d="M52.18,13.1l2.44,1.41c1.61.93,1.54,2.1-.38,3a6.48,6.48,0,0,1-6.11,0l-1.57-.9-5.12,2.54-.7-.41Zm-4.92,3.18,1.5.86a4.81,4.81,0,0,0,4.75,0c1.34-.67,1.7-1.55.32-2.34l-1.65-1Z"/><path class="cls-10" d="M60.57,24,56.94,22l-5,2.5,4,2.31-.81.28L50.5,24.39l11.43-5.66,4.51,2.61-.69.34-3.82-2.2-4.3,2.13,3.63,2.09Z"/><path class="cls-10" d="M65.9,27.38,60.39,30.1l-.7-.4L71.13,24l2.47,1.43c1.69,1,1.43,2-.33,2.86a5.71,5.71,0,0,1-4.16.51c.73.8-.07,1.46-1.62,2.23l-.45.22a15.74,15.74,0,0,0-2.31,1.31L64,32.18a15.77,15.77,0,0,1,2.36-1.31l.37-.19c1.69-.83,2.34-1.47.76-2.39Zm.7-.35,1.65,1a4.36,4.36,0,0,0,4.28-.09c1.25-.62,1.62-1.37.32-2.12l-1.72-1Z"/><path class="cls-10" d="M81.79,30.2,70.35,35.85l-.7-.4,11.44-5.66Z"/><path class="cls-10" d="M85.8,38.61l-3.62-2.09L77.13,39l4,2.31-.81.28L75.73,39,87.17,33.3l4.51,2.61-.69.34-3.82-2.2-4.3,2.13,3.63,2.09Z"/><path class="cls-10" d="M84.93,44.27l11.44-5.66,1,.57c-5.53,6.38-6.12,7.1-6.43,7.41h0Q93.3,45.33,96.07,44l5.15-2.55.7.41L90.49,47.48l-.93-.54c5.77-6.65,6.36-7.33,6.65-7.59h0c-1.37.76-3.34,1.75-5.41,2.78l-5.17,2.55Z"/><path class="cls-10" d="M104,52c-.76.33-3.57,1.39-5.9,0-2.71-1.56.61-3.34,3.16-4.6,3.08-1.53,6.44-2.44,8.72-1.13s-.08,2.71-.63,3l-.73-.42c.38-.2,2.3-1.25.61-2.22-2-1.15-5.24.21-7.21,1.19-2.58,1.28-5,2.77-3.17,3.84,1.6.92,3.71.19,4.43-.12Z"/><path class="cls-10" d="M115.75,55.9l-3.63-2.09-5.05,2.5,4,2.31-.8.28-4.59-2.65,11.44-5.66,4.51,2.61-.7.34-3.81-2.2-4.3,2.13,3.63,2.09Z"/></g></g></svg>