<svg xmlns="http://www.w3.org/2000/svg" xmlns:xlink="http://www.w3.org/1999/xlink" viewBox="0 0 501.62 289.98"><defs><style>.cls-1{fill:url(#linear-gradient);}.cls-2{fill:url(#linear-gradient-2);}.cls-3{fill:url(#linear-gradient-3);}.cls-4{fill:url(#linear-gradient-4);}.cls-5{fill:url(#linear-gradient-5);}.cls-6{fill:url(#linear-gradient-6);}.cls-7{fill:none;stroke:#0071bc;stroke-miterlimit:10;stroke-width:3px;stroke-dasharray:10 10;}.cls-8{fill:#fff;}.cls-9{fill:#0071bc;}.cls-10{fill:url(#linear-gradient-7);}.cls-11{fill:url(#linear-gradient-8);}</style><linearGradient id="linear-gradient" x1="-1989.89" y1="-1267.95" x2="-2054.4" y2="-1215.83" gradientTransform="matrix(0.87, 0.5, -1, 0.58, 596.23, 1739.67)" gradientUnits="userSpaceOnUse"><stop offset="0" stop-color="#4032a1"/><stop offset="1" stop-color="#1697bb"/></linearGradient><linearGradient id="linear-gradient-2" x1="-2070.86" y1="-1233.69" x2="-2010.67" y2="-1164.47" xlink:href="#linear-gradient"/><linearGradient id="linear-gradient-3" x1="-2002.53" y1="-1267.66" x2="-2062.12" y2="-1197.26" xlink:href="#linear-gradient"/><linearGradient id="linear-gradient-4" x1="-1985.77" y1="-1253.96" x2="-2078.43" y2="-1198.26" xlink:href="#linear-gradient"/><linearGradient id="linear-gradient-5" x1="-2041.95" y1="-1217.51" x2="-2026.89" y2="-1194.82" xlink:href="#linear-gradient"/><linearGradient id="linear-gradient-6" x1="-2057.85" y1="-1228.39" x2="-2019.47" y2="-1183.92" xlink:href="#linear-gradient"/><linearGradient id="linear-gradient-7" x1="-1892.97" y1="-1184.51" x2="-1892.97" y2="-1219.89" xlink:href="#linear-gradient"/><linearGradient id="linear-gradient-8" x1="-1772.97" y1="-1184.51" x2="-1772.97" y2="-1219.89" xlink:href="#linear-gradient"/></defs><g id="Layer_2" data-name="Layer 2"><g id="Layer_1-2" data-name="Layer 1"><path class="cls-1" d="M86.82,19.32a22.79,22.79,0,0,1-3.07,1.45h0A32.23,32.23,0,0,1,66.63,22c.09-3.86-2.42-7.75-7.53-10.7A28.71,28.71,0,0,0,53.79,9,11.43,11.43,0,0,1,59.1,3.32a23.2,23.2,0,0,1,5.35-2.2h0c7.29-2,16.3-1.31,22.36,2.19C94.47,7.74,94.47,14.9,86.82,19.32Z"/><path class="cls-2" d="M49.06,46.12l-12.13,7a12.29,12.29,0,0,1-11.08,0L2.29,39.52c-3-1.77-3-4.64,0-6.4l.32-.19a30.9,30.9,0,0,0,8,6.39C21.06,45.35,35.57,47.62,49.06,46.12Z"/><path class="cls-3" d="M71.23,4.32a47.27,47.27,0,0,0-6.77-3.19h0a23.2,23.2,0,0,0-5.35,2.2A11.43,11.43,0,0,0,53.79,9a28.71,28.71,0,0,1,5.31,2.36c5.11,2.95,7.62,6.84,7.53,10.7a32.23,32.23,0,0,0,17.11-1.25h0C83.31,14.79,79.13,8.88,71.23,4.32Z"/><path class="cls-4" d="M66.63,22a24.75,24.75,0,0,1-7.53-2.7C54.23,16.5,52.46,12.58,53.79,9a28.71,28.71,0,0,1,5.31,2.36C64.21,14.27,66.72,18.16,66.63,22Z"/><path class="cls-5" d="M59.1,32.32c-10,5.8-26.32,5.8-36.37,0-3.49-2-5.77-4.47-6.83-7.06l9.43-5.44a25.3,25.3,0,0,1,3.35-1.62,38.94,38.94,0,0,1,17.18-2.4,33.65,33.65,0,0,1,14.11,4,15.61,15.61,0,0,1,5.93,5.53h0C64.82,27.91,62.55,30.33,59.1,32.32Z"/><path class="cls-6" d="M60,39.82l-10.91,6.3c-13.49,1.5-28-.77-38.45-6.8a30.9,30.9,0,0,1-8-6.39L15.9,25.26c1.06,2.59,3.34,5,6.83,7.06,10.05,5.8,26.33,5.8,36.37,0,3.45-2,5.72-4.41,6.79-7A8.62,8.62,0,0,1,67,31.47C66.36,34.52,64,37.48,60,39.82Z"/><line class="cls-7" x1="74.2" y1="44.03" x2="378.3" y2="219.6"/><path class="cls-8" d="M73.18,46.05a2.26,2.26,0,1,1,3.08-.83A2.26,2.26,0,0,1,73.18,46.05Z"/><path class="cls-9" d="M73,46.31a2.56,2.56,0,1,0-.94-3.49A2.56,2.56,0,0,0,73,46.31C74.25,47,71.81,45.6,73,46.31Zm2.26-3.91a2,2,0,1,1-2.68.72,2,2,0,0,1,2.68-.72Z"/><path class="cls-8" d="M377.06,221.49a2.26,2.26,0,1,0-.83-3.08A2.26,2.26,0,0,0,377.06,221.49Z"/><path class="cls-9" d="M376.91,221.75a2.56,2.56,0,1,1,3.49-.93,2.56,2.56,0,0,1-3.49.93C375.69,221.05,378.13,222.46,376.91,221.75Zm2.25-3.91a2,2,0,1,0,.72,2.68,2,2,0,0,0-.72-2.68Z"/><path class="cls-9" d="M393.31,237.7l-1.12-.65a25.16,25.16,0,0,1,2.39-1.52,8.43,8.43,0,0,1-6.91-.77c-4.55-2.63-.4-6.08,5.11-9.26,6.79-3.92,12.43-4.93,16.44-2.62,4.51,2.61.73,5.17-.44,5.92L407.4,228c.61-.42,3.89-2.49.55-4.43s-8.07-.52-13.67,2.72c-5.36,3.08-8.49,5.93-5.26,7.8s6.78.64,11.88-2.31l.91-.52-4.07-2.35,1.25-.72,5.39,3.11Z"/><path class="cls-9" d="M424.25,243.49c-6.68,3.86-12.16,5.37-16.41,2.91s-1.73-5.46,5-9.37,12.18-5,16.08-2.75C433.06,236.65,431.09,239.54,424.25,243.49Zm-9.9-5.68c-6.47,3.73-8,6.3-5.21,7.91s7.2.72,13.61-3c6.74-3.89,7.69-6.16,4.93-7.75S420.58,234.21,414.35,237.81Z"/><path class="cls-9" d="M432.06,251.57l-9.16,3.22-1.34-.78,25.59-8.91,1.76,1L433.69,261l-1.47-.85,5.54-5.3Zm6.61,2.38c4.28-4.16,6.84-6.64,8-7.61l-.06,0c-2,.82-7.05,2.62-13,4.72Z"/><path class="cls-9" d="M462.8,254.13l1.34.78L444.88,266l7.51,4.34-1.54.55L442.28,266Z"/><path class="cls-9" d="M465.06,273.16c-2.21,1.46-2.79,3.2-.3,4.64s4.91,1.45,7.8-.22c2.46-1.42,2.82-2.67,1.31-5.17s-1.63-4.21,1.3-5.9a9.82,9.82,0,0,1,9.5,0c3.55,2,1.91,4.17-.27,5.5l-1.34-.77c.79-.57,3.26-2.34.28-4.07a6.67,6.67,0,0,0-6.67.09c-2.27,1.31-2.33,2.52-.95,4.81,1.81,3,1.16,4.67-1.65,6.29a10.41,10.41,0,0,1-10.58.17c-3.73-2.15-2.55-4.34.2-6.13Z"/><path class="cls-9" d="M139.17,107.16c-.62-.42-2.63-1.93-.29-3.28,2.7-1.56,6,.21,8.4,1.58,2.86,1.65,4.64,3.48,2.36,4.79s-4.88.06-5.42-.23l.73-.42c.37.2,2.34,1.23,4,.25,2-1.14-.6-2.9-2.43-4-2.4-1.38-5.19-2.67-7-1.6-1.59.92-.2,2.06.38,2.45Z"/><path class="cls-9" d="M142.22,114.37l-.7.41-4.67-2.7-4,2.32,4.67,2.69-.7.4-10.61-6.13.69-.4L132.2,114l4-2.31-5.31-3.06.7-.41Z"/><path class="cls-9" d="M121.82,120.05l3.63-2.09-4.69-2.71-4,2.31-.54-.44,4.59-2.65,10.62,6.13-4.51,2.61-.65-.38,3.81-2.2-4-2.3-3.62,2.09Z"/><path class="cls-9" d="M109.27,124.42c-.62-.42-2.63-1.93-.29-3.28,2.71-1.56,6,.21,8.4,1.58,2.86,1.65,4.64,3.48,2.36,4.79s-4.88.06-5.41-.23l.72-.42c.38.2,2.34,1.23,4,.25,2-1.14-.59-2.9-2.43-4-2.39-1.38-5.18-2.67-7-1.6-1.59.92-.19,2.06.38,2.45Z"/><path class="cls-9" d="M112.32,131.64l-.7.4-5.55-3.21c.29,1.17,1,3.88,1.48,5.56l-.8.46-1.16-4.4L96,128.78l.82-.48,8.63,1.54-.36-1.55L101,125.91l.7-.4Z"/><path class="cls-9" d="M94.05,134.93l-.65-.38,3-1.75.64.37Z"/><path class="cls-9" d="M95.81,141.17l-2.45,1.41a5.5,5.5,0,0,1-5.49-.1c-1.78-1-2.08-2.29-.18-3.39l1.57-.9-4.77-2.75.7-.4Zm-5.91-2.61-1.5.87c-1.41.81-1.41,1.7.2,2.63a4.17,4.17,0,0,0,4.21.09l1.66-1Z"/><path class="cls-9" d="M75.28,147c-3.45-2-4.81-3.63-2.6-4.9s4.89-.52,8.4,1.51,4.48,3.64,2.46,4.8S78.83,149.05,75.28,147Zm5.1-3c-3.35-1.93-5.65-2.38-7.09-1.55s-.65,2.15,2.68,4.07c3.48,2,5.52,2.29,6.94,1.47S83.6,145.91,80.38,144Z"/><path class="cls-9" d="M74.85,153.27l-10.62-6.13.7-.4,10.62,6.13Z"/><path class="cls-9" d="M58.85,150.25l10.62,6.13-1,.56c-11.69-2.82-13-3.12-13.59-3.28h0c1.59.84,3.23,1.76,5,2.75l4.78,2.76-.71.4-10.62-6.12.93-.54c12.19,3,13.43,3.25,13.92,3.4h0c-1.42-.73-3.28-1.79-5.2-2.89l-4.8-2.77Z"/><path class="cls-9" d="M56.64,163l2.43-1.41.65.38-5.56,3.2-.65-.37,2.43-1.4-10-5.76.7-.4Z"/><path class="cls-9" d="M41.73,165.13l-.64-.37,3-1.75.65.37Z"/><path class="cls-9" d="M32.16,165.65l9.45,5.46a3.4,3.4,0,0,1,1-1.37l.6.34a3.18,3.18,0,0,0-.86,1.66l-.49.28-10.35-6Z"/><path class="cls-9" d="M243.09,167.16c-.62-.42-2.62-1.93-.29-3.28,2.71-1.56,6,.21,8.4,1.58,2.86,1.65,4.64,3.48,2.36,4.79s-4.87.06-5.41-.23l.72-.42c.38.2,2.34,1.23,4,.25,2-1.14-.59-2.9-2.43-4-2.39-1.38-5.18-2.67-7-1.6-1.6.92-.2,2.06.37,2.45Z"/><path class="cls-9" d="M246.14,174.37l-.7.41-4.66-2.7-4,2.32,4.67,2.69-.7.4-10.62-6.13.7-.4,5.3,3.06,4-2.31-5.31-3.06.7-.41Z"/><path class="cls-9" d="M225.74,180.05l3.63-2.09-4.69-2.71-4,2.31-.54-.44,4.59-2.65,10.62,6.13-4.51,2.61-.65-.38,3.82-2.2-4-2.3-3.63,2.09Z"/><path class="cls-9" d="M213.2,184.42c-.63-.42-2.63-1.93-.3-3.28,2.71-1.56,6,.21,8.4,1.58,2.87,1.65,4.64,3.48,2.36,4.79s-4.87.06-5.41-.23l.73-.42c.37.2,2.34,1.23,4,.25,2-1.14-.59-2.9-2.43-4-2.39-1.38-5.18-2.67-7-1.6-1.6.92-.2,2.06.37,2.45Z"/><path class="cls-9" d="M216.24,191.64l-.69.4L210,188.83c.28,1.17,1,3.88,1.47,5.56l-.79.46-1.16-4.4L200,188.78l.83-.48,8.63,1.54-.36-1.55-4.12-2.38.69-.4Z"/><path class="cls-9" d="M198,194.93l-.65-.38,3-1.75.64.37Z"/><path class="cls-9" d="M199.73,201.17l-2.45,1.41a5.48,5.48,0,0,1-5.48-.1c-1.79-1-2.09-2.29-.19-3.39l1.57-.9-4.76-2.75.7-.4Zm-5.91-2.61-1.5.87c-1.41.81-1.41,1.7.2,2.63a4.19,4.19,0,0,0,4.22.09l1.65-1Z"/><path class="cls-9" d="M179.21,207c-3.46-2-4.82-3.63-2.61-4.9s4.9-.52,8.4,1.51,4.48,3.64,2.47,4.8S182.75,209.05,179.21,207Zm5.09-3c-3.35-1.93-5.64-2.38-7.09-1.55s-.64,2.15,2.68,4.07c3.49,2,5.52,2.29,7,1.47S187.53,205.91,184.3,204Z"/><path class="cls-9" d="M178.77,213.27l-10.62-6.13.7-.4,10.62,6.13Z"/><path class="cls-9" d="M162.77,210.25l10.62,6.13-1,.56c-11.69-2.82-13-3.12-13.58-3.28h0q2.38,1.26,4.95,2.75l4.78,2.76-.71.4-10.61-6.12.92-.54c12.19,3,13.43,3.25,13.92,3.4h0c-1.41-.73-3.28-1.79-5.19-2.89l-4.8-2.77Z"/><path class="cls-9" d="M160.56,223l2.43-1.41.65.38-5.56,3.2-.64-.37,2.43-1.4-10-5.76.7-.4Z"/><path class="cls-9" d="M145.66,225.13l-.65-.37,3-1.75.64.37Z"/><path class="cls-9" d="M137.3,225l.06,0a4.58,4.58,0,0,1,1.93,3.81c.11,1.68.26,2.33,1.53,3.06a3.64,3.64,0,0,0,3.69.27c1.1-.63.83-1.43-.46-2.24l.69-.41c1.43.84,2.07,2,.39,3a4.87,4.87,0,0,1-5-.2c-1.53-.89-1.68-1.65-1.76-3.29a4.48,4.48,0,0,0-1.25-3.22l-4.43,2.55-.52-.42Z"/><path class="cls-10" d="M154.37,99.33v-7c0-1.37,1.93-2.48,4.31-2.48h12.16c2.38,0,4.31,1.11,4.31,2.48v7c0,1.37-1.93,2.49-4.31,2.49H158.68C156.3,101.82,154.37,100.7,154.37,99.33Z"/><path class="cls-11" d="M258.29,159.33v-7c0-1.37,1.93-2.48,4.31-2.48h12.16c2.38,0,4.31,1.11,4.31,2.48v7c0,1.37-1.93,2.49-4.31,2.49H262.6C260.22,161.82,258.29,160.7,258.29,159.33Z"/></g></g></svg>