<svg xmlns="http://www.w3.org/2000/svg" xmlns:xlink="http://www.w3.org/1999/xlink" viewBox="0 0 652.53 404.24"><defs><style>.cls-1{fill:url(#linear-gradient);}.cls-2{fill:url(#linear-gradient-2);}.cls-3{fill:url(#linear-gradient-3);}.cls-4{fill:url(#linear-gradient-4);}.cls-5,.cls-7,.cls-8,.cls-9{fill:none;stroke-miterlimit:10;}.cls-5,.cls-7,.cls-8{stroke:#fff;}.cls-5{stroke-width:5px;}.cls-6{fill:#fff;}.cls-7,.cls-8,.cls-9{stroke-linecap:round;}.cls-7,.cls-9{stroke-width:4px;}.cls-8{stroke-width:7px;}.cls-9{stroke:#0071bc;stroke-dasharray:8 8;}.cls-10{fill:#0071bc;}</style><linearGradient id="linear-gradient" x1="-1620.18" y1="-1533.02" x2="-1621.43" y2="-1184.98" gradientTransform="matrix(0.87, 0.5, -1, 0.58, 412.31, 1726.4)" gradientUnits="userSpaceOnUse"><stop offset="0" stop-color="#2e28a1"/><stop offset="1" stop-color="#0aadbb"/></linearGradient><linearGradient id="linear-gradient-2" x1="-1622.89" y1="-1548.28" x2="-1619.75" y2="-1234.94" xlink:href="#linear-gradient"/><linearGradient id="linear-gradient-3" x1="-1622.16" y1="-1005.43" x2="-1620.28" y2="-1379.77" xlink:href="#linear-gradient"/><linearGradient id="linear-gradient-4" x1="-1622.22" y1="-1032.63" x2="-1620.34" y2="-1261.15" xlink:href="#linear-gradient"/></defs><g id="Layer_2" data-name="Layer 2"><g id="Layer_1-2" data-name="Layer 1"><path class="cls-1" d="M442.29,188.63l-62.5,36.09c-5.93-25-25-48.68-57.36-67.39S249,127.64,205.72,124.22l62.49-36.09C308.66,95,346.28,107.4,377.6,125.48S430.44,165.28,442.29,188.63Z"/><path class="cls-2" d="M460.12,178.34l-17.83,10.29c-11.85-23.35-33.37-45.07-64.69-63.15S308.66,95,268.21,88.13l17.84-10.29c8.67-5,22.23-5.31,30.26-.67l145,83.69C469.31,165.5,468.79,173.33,460.12,178.34Z"/><path class="cls-3" d="M379.79,224.72l-79.62,46c9.33-28-3.57-57.16-39.32-77.8s-86.21-28.08-134.75-22.7l79.62-46C249,127.64,290,138.63,322.43,157.33S373.86,199.71,379.79,224.72Z"/><path class="cls-4" d="M300.17,270.68l-38.12,22c-8.68,5-22.23,5.31-30.27.67l-145-83.69c-8-4.64-7.52-12.47,1.16-17.48l38.12-22c48.54-5.38,99,2.06,134.75,22.7S309.5,242.66,300.17,270.68Z"/><ellipse class="cls-5" cx="295.7" cy="112.77" rx="31.84" ry="18.38"/><ellipse class="cls-6" cx="299.89" cy="110.85" rx="8.77" ry="5.06"/><ellipse class="cls-6" cx="286.45" cy="118.6" rx="10.23" ry="5.91"/><polygon class="cls-6" points="266.81 121.59 281.28 129.94 293.69 122.78 279.21 114.43 266.81 121.59"/><line class="cls-7" x1="249.8" y1="124.77" x2="275.78" y2="139.77"/><line class="cls-7" x1="243.74" y1="128.27" x2="269.72" y2="143.27"/><line class="cls-7" x1="237.67" y1="131.77" x2="263.66" y2="146.77"/><line class="cls-7" x1="214.29" y1="145.27" x2="229.88" y2="154.27"/><line class="cls-7" x1="208.23" y1="148.77" x2="234.21" y2="163.77"/><line class="cls-7" x1="202.17" y1="152.26" x2="228.15" y2="167.26"/><path class="cls-6" d="M347.9,130.89c-.72.36-3.34,1.52-5.68.17-2.71-1.56.36-3.48,2.73-4.85,2.86-1.65,6-2.68,8.31-1.36s.1,2.81-.4,3.12l-.73-.42c.34-.21,2.12-1.35.44-2.32-2-1.14-5,.34-6.86,1.4-2.39,1.38-4.63,3-2.79,4.06,1.6.92,3.58.11,4.25-.22Z"/><path class="cls-6" d="M348.63,134.6l8-7.64.74.43-4.07,3.85c-1.15,1.1-2.7,2.55-3.52,3.18l0,0c1-.39,3.7-1.3,5.66-2l6.74-2.3.71.41-13.4,4.52Z"/><path class="cls-6" d="M359.78,136l-.64.37-3-1.75.64-.37Z"/><path class="cls-6" d="M367.48,133.22l2.46,1.42c1.43.83,1.47,1.9-.13,2.83a4.68,4.68,0,0,1-3.65.54c.58.64.69,1.6-1,2.56a6,6,0,0,1-6,.14l-2.36-1.36Zm-9.3,6.17,1.61.93a4.57,4.57,0,0,0,4.65-.14c1.62-.94,1.48-1.89-.06-2.78l-1.38-.79Zm6.85-2.33a3.71,3.71,0,0,0,4,0c1.15-.67,1.35-1.48.12-2.19l-1.61-.93-3.91,2.27Z"/><path class="cls-6" d="M375,137.55l-7.55,4.36c-1.36.79-2.17,1.73-.62,2.63s3,.55,4.59-.36l7.53-4.34.69.4-7.54,4.35c-1.95,1.13-3.9,1.48-5.94.3s-1.44-2.22.47-3.33l7.65-4.42Z"/><path class="cls-6" d="M382.48,141.88,371.87,148l-.7-.4,10.62-6.13Z"/><path class="cls-6" d="M384.75,143.19l.7.4-10,5.76,3.9,2.25-.81.28-4.43-2.56Z"/><path class="cls-6" d="M390.48,146.5l2.11,1.22c2.27,1.31,1.71,2.93-1.6,4.84-3.62,2.09-6.61,2.68-9.2,1.18l-1.92-1.11Zm-9.27,6.16,1.16.67c2.23,1.29,4.72.64,7.83-1.16s3.51-3.06,1.51-4.21l-1.17-.68Z"/><path class="cls-6" d="M396.84,156.27l-3.63-2.09-4.69,2.7,4,2.32-.75.3-4.59-2.65,10.62-6.13,4.51,2.61-.65.37-3.81-2.2-4,2.3,3.62,2.1Z"/><path class="cls-6" d="M399.07,157.81l-5.11,3-.7-.41,10.62-6.13,2.46,1.43c1.69,1,1.51,2-.12,3a5,5,0,0,1-4,.62c.76.81,0,1.53-1.41,2.35l-.42.25a13.48,13.48,0,0,0-2.13,1.41l-.73-.42a13.75,13.75,0,0,1,2.18-1.42l.35-.2c1.57-.91,2.15-1.59.57-2.5Zm.64-.37,1.66.95a3.89,3.89,0,0,0,4.11-.18c1.16-.67,1.47-1.46.17-2.21l-1.72-1Z"/><line class="cls-7" x1="183.12" y1="163.26" x2="198.7" y2="172.26"/><line class="cls-7" x1="177.05" y1="166.76" x2="192.64" y2="175.76"/><line class="cls-7" x1="170.99" y1="170.26" x2="196.97" y2="185.26"/><line class="cls-7" x1="164.93" y1="173.76" x2="180.52" y2="182.76"/><line class="cls-7" x1="158.87" y1="177.26" x2="184.85" y2="192.26"/><line class="cls-7" x1="152.8" y1="180.76" x2="178.79" y2="195.76"/><line class="cls-8" x1="341.6" y1="140.27" x2="392.69" y2="169.77"/><line class="cls-7" x1="328.61" y1="146.27" x2="409.15" y2="192.77"/><line class="cls-7" x1="321.68" y1="150.27" x2="402.22" y2="196.77"/><line class="cls-7" x1="314.75" y1="154.27" x2="384.03" y2="194.27"/><line class="cls-8" x1="299.16" y1="163.77" x2="350.26" y2="193.27"/><line class="cls-7" x1="290.5" y1="167.27" x2="371.04" y2="213.77"/><line class="cls-7" x1="267.99" y1="180.27" x2="348.53" y2="226.77"/><line class="cls-7" x1="274.05" y1="176.77" x2="343.33" y2="216.77"/><line class="cls-7" x1="255.86" y1="187.26" x2="336.4" y2="233.76"/><line class="cls-7" x1="261.92" y1="183.76" x2="331.21" y2="223.76"/><line class="cls-8" x1="227.28" y1="205.26" x2="266.25" y2="227.76"/><line class="cls-7" x1="218.62" y1="208.76" x2="271.45" y2="239.26"/><line class="cls-7" x1="213.43" y1="211.76" x2="266.25" y2="242.26"/><line class="cls-7" x1="208.23" y1="214.76" x2="261.06" y2="245.26"/><line class="cls-7" x1="334.63" y1="134.79" x2="202.17" y2="211.26"/><path class="cls-6" d="M332.56,131.64a3.76,3.76,0,1,1-1.37,5.14A3.76,3.76,0,0,1,332.56,131.64Z"/><path class="cls-6" d="M332.31,131.21a4.26,4.26,0,1,0,5.82,1.56,4.27,4.27,0,0,0-5.82-1.56Zm3.76,6.51a3.26,3.26,0,1,1,1.2-4.45,3.27,3.27,0,0,1-1.2,4.45Z"/><line class="cls-9" x1="135.28" y1="151.65" x2="69.01" y2="113.38"/><path class="cls-6" d="M136.63,149a3,3,0,1,1-4.1,1.1A3,3,0,0,1,136.63,149Z"/><path class="cls-10" d="M136.83,148.61a3.4,3.4,0,1,0,1.25,4.65,3.41,3.41,0,0,0-1.25-4.65Zm-3,5.21a2.61,2.61,0,1,1,3.56-1,2.61,2.61,0,0,1-3.56,1Z"/><path class="cls-6" d="M70.66,110.86a3,3,0,1,0,1.1,4.11A3,3,0,0,0,70.66,110.86Z"/><path class="cls-10" d="M70.86,110.52a3.41,3.41,0,1,1-4.66,1.24,3.41,3.41,0,0,1,4.66-1.24Zm-3,5.21a2.61,2.61,0,1,0-1-3.57,2.61,2.61,0,0,0,1,3.57Z"/><line class="cls-9" x1="172.52" y1="130.15" x2="106.24" y2="91.88"/><path class="cls-6" d="M173.87,127.46a3,3,0,1,1-4.11,1.1A3,3,0,0,1,173.87,127.46Z"/><path class="cls-10" d="M174.07,127.11a3.4,3.4,0,1,0,1.25,4.65,3.41,3.41,0,0,0-1.25-4.65Zm-3,5.21a2.61,2.61,0,1,1,3.56-1,2.61,2.61,0,0,1-3.56,1Z"/><path class="cls-6" d="M107.9,89.36a3,3,0,1,0,1.1,4.11A3,3,0,0,0,107.9,89.36Z"/><path class="cls-10" d="M108.1,89a3.41,3.41,0,1,1-4.66,1.24A3.41,3.41,0,0,1,108.1,89Zm-3,5.21a2.61,2.61,0,1,0-1-3.57,2.61,2.61,0,0,0,1,3.57Z"/><path class="cls-9" d="M209.76,108.65,162,81.07c-3.84-2.22-3.84-5.81,0-8l12.94-7.47c3.84-2.22,3.84-5.81,0-8l-4.6-2.66"/><path class="cls-6" d="M211.11,106a3,3,0,1,1-4.11,1.1A3,3,0,0,1,211.11,106Z"/><path class="cls-10" d="M211.31,105.61a3.41,3.41,0,1,0,1.25,4.66,3.41,3.41,0,0,0-1.25-4.66Zm-3,5.21a2.61,2.61,0,1,1,3.57-.95,2.61,2.61,0,0,1-3.57.95Z"/><path class="cls-6" d="M172,52.36a3,3,0,1,0,1.1,4.11A3,3,0,0,0,172,52.36Z"/><path class="cls-10" d="M172.18,52a3.41,3.41,0,1,1-4.65,1.25A3.41,3.41,0,0,1,172.18,52Zm-3,5.21a2.61,2.61,0,1,0-.95-3.56,2.62,2.62,0,0,0,.95,3.56Z"/><path class="cls-9" d="M328,271.91l45.83,26.45c3.83,2.22,3.83,5.81,0,8l-3.23,1.86c-3.84,2.22-3.84,5.81,0,8l26.16,15.11"/><path class="cls-6" d="M326.63,274.6a3,3,0,1,1,4.11-1.11A3,3,0,0,1,326.63,274.6Z"/><path class="cls-10" d="M326.43,274.94a3.41,3.41,0,1,0-1.25-4.65,3.4,3.4,0,0,0,1.25,4.65Zm3-5.21a2.61,2.61,0,1,1-3.57,1,2.61,2.61,0,0,1,3.57-1Z"/><path class="cls-6" d="M395.09,333.9a3,3,0,1,0-1.1-4.1A3,3,0,0,0,395.09,333.9Z"/><path class="cls-10" d="M394.89,334.25a3.41,3.41,0,1,1,4.66-1.25,3.41,3.41,0,0,1-4.66,1.25Zm3-5.21a2.61,2.61,0,1,0,1,3.56,2.6,2.6,0,0,0-1-3.56Z"/><line class="cls-9" x1="371.29" y1="246.91" x2="457.18" y2="296.49"/><path class="cls-6" d="M369.93,249.6a3,3,0,1,1,4.11-1.11A3,3,0,0,1,369.93,249.6Z"/><path class="cls-10" d="M369.73,249.94a3.41,3.41,0,1,0-1.25-4.65,3.4,3.4,0,0,0,1.25,4.65Zm3-5.21a2.61,2.61,0,1,1-3.57,1,2.61,2.61,0,0,1,3.57-1Z"/><path class="cls-6" d="M455.52,299a3,3,0,1,0-1.1-4.1A3,3,0,0,0,455.52,299Z"/><path class="cls-10" d="M455.32,299.36a3.41,3.41,0,1,1,4.66-1.25,3.41,3.41,0,0,1-4.66,1.25Zm3-5.21a2.61,2.61,0,1,0,1,3.56,2.61,2.61,0,0,0-1-3.56Z"/><line class="cls-9" x1="404.19" y1="227.91" x2="490.08" y2="277.49"/><path class="cls-6" d="M402.84,230.6a3,3,0,1,1,4.11-1.11A3,3,0,0,1,402.84,230.6Z"/><path class="cls-10" d="M402.64,230.94a3.41,3.41,0,1,0-1.25-4.65,3.4,3.4,0,0,0,1.25,4.65Zm3-5.21a2.61,2.61,0,1,1-3.57,1,2.61,2.61,0,0,1,3.57-1Z"/><path class="cls-6" d="M488.43,280a3,3,0,1,0-1.1-4.1A3,3,0,0,0,488.43,280Z"/><path class="cls-10" d="M488.23,280.36a3.41,3.41,0,1,1,4.66-1.25,3.41,3.41,0,0,1-4.66,1.25Zm3-5.21a2.61,2.61,0,1,0,1,3.56,2.61,2.61,0,0,0-1-3.56Z"/><path class="cls-9" d="M432.75,211.42l63.1,36.43a15.34,15.34,0,0,0,13.9,0l13-7.48a15.36,15.36,0,0,1,13.91,0l8.88,5.12"/><path class="cls-6" d="M431.39,214.11a3,3,0,1,1,4.11-1.1A3,3,0,0,1,431.39,214.11Z"/><path class="cls-10" d="M431.19,214.46a3.41,3.41,0,1,0-1.25-4.66,3.4,3.4,0,0,0,1.25,4.66Zm3-5.21a2.61,2.61,0,1,1-3.57.95,2.61,2.61,0,0,1,3.57-.95Z"/><path class="cls-6" d="M543.86,248a3,3,0,1,0-1.1-4.1A3,3,0,0,0,543.86,248Z"/><path class="cls-10" d="M543.66,248.36a3.41,3.41,0,1,1,4.65-1.25,3.41,3.41,0,0,1-4.65,1.25Zm3-5.21a2.61,2.61,0,1,0,1,3.56,2.62,2.62,0,0,0-1-3.56Z"/><path class="cls-10" d="M91.09,9.61c-.71.36-3.34,1.52-5.67.17-2.71-1.56.36-3.48,2.73-4.85,2.86-1.65,6-2.68,8.31-1.36s.1,2.81-.4,3.12l-.73-.42c.34-.21,2.12-1.35.43-2.32-2-1.14-5,.34-6.85,1.4-2.4,1.38-4.63,3-2.79,4.06,1.6.92,3.58.11,4.25-.22Z"/><path class="cls-10" d="M104,14.07c-3.45,2-6.29,2.78-8.49,1.51s-.9-2.83,2.61-4.86,6.3-2.58,8.32-1.42S107.49,12,104,14.07Zm-5.12-2.94c-3.35,1.93-4.14,3.26-2.7,4.09s3.73.37,7.05-1.54c3.48-2,4-3.19,2.55-4S102.05,9.27,98.83,11.13Z"/><path class="cls-10" d="M103.49,20.05l10.61-6.13,1,.56c-4.88,6.75-5.4,7.52-5.68,7.85h0q2.19-1.38,4.77-2.86L119,16.72l.71.41L109,23.26l-.93-.54c5.11-7,5.63-7.75,5.89-8h0c-1.26.82-3.1,1.89-5,3l-4.8,2.77Z"/><path class="cls-10" d="M125.64,21.32l-2.43-1.4.64-.37,5.56,3.21-.65.37-2.43-1.4-10,5.75-.69-.4Z"/><path class="cls-10" d="M126.74,29.07,122,30.74l-.69-.4,13.24-4.61.91.52L127.58,34l-.76-.44,2.87-2.74Zm3.42,1.23c2.22-2.15,3.54-3.43,4.15-3.93l0,0c-1,.43-3.65,1.36-6.74,2.44Z"/><path class="cls-10" d="M140,37.83c-.71.36-3.34,1.51-5.67.17-2.71-1.57.36-3.49,2.73-4.85,2.86-1.66,6-2.68,8.31-1.37s.1,2.82-.4,3.13l-.73-.42c.34-.22,2.12-1.35.43-2.33-2-1.14-5,.35-6.85,1.41-2.4,1.38-4.63,3-2.79,4,1.6.92,3.58.12,4.25-.21Z"/><path class="cls-10" d="M153.28,37.28l-2.43-1.4.64-.37,5.56,3.2-.65.38L154,37.68l-10,5.76-.7-.4Z"/><path class="cls-10" d="M153.26,45.7c-1.14.75-1.44,1.66-.15,2.4a3.77,3.77,0,0,0,4-.11c1.27-.74,1.45-1.38.67-2.68s-.84-2.18.67-3.05a5.08,5.08,0,0,1,4.92,0c1.84,1.06,1,2.16-.14,2.85l-.69-.4c.4-.29,1.69-1.21.14-2.11a3.46,3.46,0,0,0-3.45.05c-1.18.68-1.21,1.3-.49,2.49.94,1.57.6,2.42-.86,3.26a5.36,5.36,0,0,1-5.47.08c-1.93-1.11-1.32-2.24.1-3.17Z"/><path class="cls-10" d="M28.16,45.31c-3.46,2-6.29,2.78-8.5,1.51S18.77,44,22.27,42s6.31-2.58,8.32-1.42S31.7,43.26,28.16,45.31ZM23,42.37c-3.35,1.93-4.14,3.26-2.69,4.09s3.72.37,7-1.54c3.49-2,4-3.19,2.55-4S26.26,40.51,23,42.37Z"/><path class="cls-10" d="M38.31,45.16l2.46,1.42c1.43.83,1.48,1.9-.13,2.83A4.66,4.66,0,0,1,37,50c.57.64.68,1.6-1,2.56a6,6,0,0,1-6,.14l-2.36-1.36ZM29,51.33l1.61.93a4.55,4.55,0,0,0,4.64-.14c1.63-.94,1.48-1.89-.06-2.78l-1.38-.79ZM35.87,49a3.71,3.71,0,0,0,4,0c1.15-.67,1.34-1.48.12-2.19l-1.61-.93-3.92,2.27Z"/><path class="cls-10" d="M41.48,56.49c-1.26.72-2.63,1.4-4.3.44a4.92,4.92,0,0,1-.66-.45l.63-.37a6.37,6.37,0,0,0,.64.43c1,.54,1.74.27,2.89-.39L49,51.34l.7.4Z"/><path class="cls-10" d="M54.06,60.35l-3.63-2.09L45.75,61l4,2.31-.76.31L44.4,60.94,55,54.81l4.51,2.6-.64.38-3.82-2.21-4,2.31L54.71,60Z"/><path class="cls-10" d="M61.63,67.6c-.72.36-3.34,1.52-5.68.17-2.7-1.56.37-3.49,2.73-4.85,2.87-1.66,6-2.68,8.31-1.37s.11,2.82-.4,3.13l-.73-.42c.35-.22,2.13-1.35.44-2.32-2-1.15-5,.34-6.86,1.4-2.39,1.38-4.62,3-2.78,4.06,1.59.92,3.58.11,4.24-.22Z"/><path class="cls-10" d="M74.94,67.05l-2.43-1.4.65-.37,5.55,3.21-.64.37-2.43-1.4-10,5.75-.7-.4Z"/><path class="cls-10" d="M83.71,71.37,73.1,77.5l-.7-.4L83,71Z"/><path class="cls-10" d="M80.26,81.64l8-7.64.74.43-4.07,3.85c-1.15,1.1-2.71,2.55-3.52,3.18l0,0c1-.39,3.7-1.3,5.66-2l6.74-2.3.71.41-13.4,4.52Z"/><path class="cls-10" d="M98,85.7l-3.63-2.1-4.69,2.71,4,2.31-.75.31L88.3,86.28l10.62-6.13,4.51,2.6-.65.38L99,80.93l-4,2.3,3.62,2.09Z"/><path class="cls-10" d="M7.9,79.78c-1.14.75-1.44,1.65-.15,2.4a3.77,3.77,0,0,0,4-.12c1.27-.73,1.46-1.38.68-2.67s-.84-2.18.67-3.06a5.08,5.08,0,0,1,4.92,0c1.83,1.06,1,2.16-.14,2.85l-.7-.41c.41-.29,1.7-1.21.15-2.1a3.44,3.44,0,0,0-3.45,0c-1.18.67-1.21,1.3-.49,2.49.94,1.56.6,2.41-.86,3.25a5.38,5.38,0,0,1-5.47.09c-1.93-1.12-1.32-2.25.1-3.17Z"/><path class="cls-10" d="M25.25,80.62l.7.4-5.55,3.2c2-.16,6.7-.6,9.62-.85l.79.46-7.62.67L20.31,90l-.83-.47,2.66-5-2.69.2-4.12,2.38-.7-.4Z"/><path class="cls-10" d="M35.74,86.67,25.12,92.8l-.7-.4L35,86.27Z"/><path class="cls-10" d="M41.12,89.78l.7.4-10,5.76,3.9,2.25-.8.28L30.5,95.91Z"/><path class="cls-10" d="M50,94.89l.7.4-10,5.76,3.89,2.25-.8.28L39.36,101Z"/><path class="cls-10" d="M51.15,104.74c-1.15.76-1.45,1.66-.16,2.4a3.77,3.77,0,0,0,4-.11c1.27-.74,1.45-1.38.67-2.68s-.84-2.18.67-3a5.08,5.08,0,0,1,4.92,0c1.84,1.06,1,2.16-.14,2.85l-.69-.4c.41-.29,1.69-1.21.14-2.1a3.44,3.44,0,0,0-3.45,0c-1.17.68-1.21,1.31-.49,2.49.94,1.57.6,2.42-.86,3.26a5.36,5.36,0,0,1-5.47.08c-1.93-1.11-1.32-2.24.1-3.17Z"/><path class="cls-10" d="M412.48,334.18l.69.41-4.66,2.69,4,2.31,4.67-2.69.7.4-10.62,6.13-.7-.4,5.31-3.06-4-2.32-5.3,3.06-.7-.4Z"/><path class="cls-10" d="M423.46,346.54c-3.46,2-6.29,2.78-8.49,1.5s-.9-2.83,2.61-4.85,6.3-2.58,8.32-1.42S427,344.49,423.46,346.54Zm-5.12-2.94c-3.35,1.93-4.14,3.26-2.7,4.09s3.73.37,7.05-1.55c3.48-2,4-3.18,2.55-4S421.56,341.73,418.34,343.6Z"/><path class="cls-10" d="M423,352.52l10.61-6.13,1,.56c-4.88,6.75-5.4,7.52-5.68,7.84h0c1.46-.91,3.05-1.87,4.77-2.86l4.77-2.75.71.4-10.62,6.13-.93-.53c5.11-7,5.63-7.75,5.9-8h0c-1.26.81-3.1,1.89-5,3l-4.8,2.77Z"/><path class="cls-10" d="M444.74,358.82c-3.46,2-6.29,2.78-8.5,1.51s-.89-2.83,2.61-4.85,6.31-2.59,8.33-1.43S448.28,356.78,444.74,358.82Zm-5.13-2.94c-3.35,1.93-4.13,3.26-2.69,4.09s3.72.38,7-1.54c3.49-2,4-3.19,2.56-4S442.84,354,439.61,355.88Z"/><path class="cls-10" d="M450.09,362.25,445,365.2l-.69-.4,10.61-6.13,2.47,1.43c1.69,1,1.51,2-.12,3a5.08,5.08,0,0,1-4,.62c.75.81,0,1.52-1.41,2.35l-.42.24a13,13,0,0,0-2.13,1.42l-.73-.42a12.67,12.67,0,0,1,2.18-1.42l.34-.2c1.58-.91,2.16-1.59.58-2.5Zm.64-.37,1.65.95a3.89,3.89,0,0,0,4.11-.18c1.17-.67,1.48-1.46.17-2.21l-1.71-1Z"/><path class="cls-10" d="M396.4,350.64l-6.14,1.41c-2.15.49-3.69.58-4.94-.14-1.52-.88-1-1.94.57-2.85,1.37-.79,2.82-1,5.19-.75s3.39.16,4.55-.51c.85-.49,1.24-1.05.33-1.58a3,3,0,0,0-2.93.28,2.6,2.6,0,0,0-1.48,1.92l-1.23,6.23-.89-.51,1.16-5.79a3.1,3.1,0,0,1,1.76-2.24,4.42,4.42,0,0,1,4.26-.23c1.29.74.92,1.61-.24,2.28-1.5.87-2.84.88-5.41.62a6.46,6.46,0,0,0-4.32.69c-1.28.74-1.57,1.55-.65,2.08s2.2.45,4.42-.07l5.28-1.25Z"/><path class="cls-10" d="M406.81,358.26l-5.12,2.95-.7-.4,10.62-6.13,2.46,1.43c1.69,1,1.51,2-.11,3a5.1,5.1,0,0,1-4,.62c.76.81,0,1.52-1.4,2.35l-.42.24a13.6,13.6,0,0,0-2.14,1.42l-.72-.42a12.67,12.67,0,0,1,2.18-1.42l.34-.2c1.57-.91,2.16-1.59.57-2.5Zm.64-.37,1.65.95a3.89,3.89,0,0,0,4.11-.18c1.17-.67,1.47-1.46.17-2.21l-1.72-1Z"/><path class="cls-10" d="M420.61,366,417,363.89l-4.69,2.7,4,2.31-.76.31L411,366.56l10.62-6.13,4.51,2.61-.65.37-3.81-2.2-4,2.3,3.63,2.1Z"/><path class="cls-10" d="M421.74,372.79l8.48-7.36.73.42c-3.67,3.17-6.83,5.91-7.83,6.63h0c1.23-.58,8.45-3.21,11.65-4.43l.75.43c-2.1,1.84-6.8,6.07-7.69,6.7l0,0c1.85-.82,8.43-3.19,11.64-4.42l.71.41-13,4.78-.84-.48c2-1.77,6.6-5.81,7.72-6.65h0c-1.68.73-8.42,3.23-11.59,4.41Z"/><path class="cls-10" d="M438.12,377.85l-4.74,1.66-.7-.4,13.25-4.61.91.52L439,382.73l-.76-.44,2.87-2.74Zm3.42,1.23c2.22-2.16,3.54-3.44,4.15-3.94l0,0c-1,.43-3.65,1.36-6.74,2.45Z"/><path class="cls-10" d="M449.22,382.75l-5.12,2.95-.69-.4L454,379.17l2.46,1.42c1.69,1,1.51,2-.12,3a5,5,0,0,1-4,.63c.76.81,0,1.52-1.4,2.35l-.43.24a13.44,13.44,0,0,0-2.13,1.42l-.73-.42a13.08,13.08,0,0,1,2.18-1.42l.35-.2c1.57-.91,2.15-1.59.57-2.5Zm.64-.37,1.66.95a3.89,3.89,0,0,0,4.11-.18c1.16-.68,1.47-1.46.17-2.21l-1.72-1Z"/><path class="cls-10" d="M464,384.92l2.1,1.22c2.27,1.31,1.71,2.93-1.6,4.84-3.62,2.08-6.61,2.68-9.2,1.18l-1.92-1.11Zm-9.28,6.16,1.16.67c2.23,1.29,4.72.64,7.83-1.16s3.51-3.06,1.51-4.21L464,385.7Z"/><path class="cls-10" d="M466.48,395.54c-1.14.75-1.44,1.65-.15,2.4a3.77,3.77,0,0,0,4-.12c1.27-.73,1.46-1.38.68-2.67s-.84-2.19.67-3.06a5.08,5.08,0,0,1,4.92,0c1.83,1.06,1,2.16-.14,2.84l-.7-.4c.41-.29,1.7-1.21.15-2.1a3.47,3.47,0,0,0-3.45,0c-1.18.68-1.21,1.31-.49,2.5.93,1.56.6,2.41-.86,3.25a5.38,5.38,0,0,1-5.47.09c-1.93-1.12-1.32-2.25.1-3.17Z"/><path class="cls-10" d="M467,304.51l-4.73,1.67-.7-.4,13.25-4.62.9.53-7.87,7.71-.77-.44,2.87-2.74Zm3.42,1.23c2.22-2.15,3.54-3.43,4.16-3.93l0,0c-1,.42-3.65,1.36-6.73,2.44Z"/><path class="cls-10" d="M480.21,313.26c-.72.36-3.35,1.52-5.68.17-2.71-1.56.36-3.48,2.73-4.85,2.86-1.65,6-2.68,8.31-1.36s.1,2.82-.4,3.13l-.73-.42c.34-.22,2.12-1.35.44-2.33-2-1.14-5,.34-6.86,1.4-2.4,1.39-4.63,3-2.79,4.06,1.6.92,3.58.11,4.25-.22Z"/><path class="cls-10" d="M493.52,312.72l-2.43-1.4.64-.38,5.56,3.21-.65.37-2.43-1.4-10,5.76-.69-.4Z"/><path class="cls-10" d="M502.29,317l-10.62,6.13-.69-.4,10.61-6.14Z"/><path class="cls-10" d="M498.83,327.3l8-7.64.75.43L503.51,324c-1.16,1.09-2.71,2.54-3.52,3.17l0,0c1-.39,3.7-1.29,5.65-2l6.74-2.3.72.41-13.41,4.52Z"/><path class="cls-10" d="M518.19,326.22l-10.62,6.13-.69-.4,10.61-6.13Z"/><path class="cls-10" d="M524.18,330.42l-2.43-1.4.65-.37,5.55,3.2-.65.38-2.42-1.41-10,5.76-.7-.4Z"/><path class="cls-10" d="M531.3,339.88l-3.63-2.09L523,340.5l4,2.31-.75.31-4.59-2.65,10.61-6.13,4.52,2.6-.65.38-3.81-2.21-4,2.31,3.62,2.09Z"/><path class="cls-10" d="M533.77,344.39c-1.15.75-1.44,1.65-.16,2.4a3.79,3.79,0,0,0,4-.12c1.27-.73,1.46-1.38.68-2.67s-.85-2.19.67-3.06a5.1,5.1,0,0,1,4.92,0c1.83,1.06,1,2.17-.14,2.85l-.7-.4c.41-.29,1.69-1.21.15-2.1a3.49,3.49,0,0,0-3.46,0c-1.17.68-1.2,1.31-.49,2.49.94,1.57.61,2.42-.85,3.26a5.4,5.4,0,0,1-5.48.09c-1.93-1.12-1.31-2.25.11-3.18Z"/><path class="cls-10" d="M506.78,285.73l-3.63-2.09-4.69,2.7,4,2.31-.76.31-4.59-2.65,10.62-6.13,4.51,2.61-.64.37-3.82-2.2-4,2.3,3.63,2.1Z"/><path class="cls-10" d="M511.12,294.39l2.64-4.11h0l-7.14,1.52-.74-.43,8.13-1.69,2.62-4.36.8.46-2.32,3.74h0l6.53-1.31.76.44-7.53,1.43-3,4.77Z"/><path class="cls-10" d="M526.85,291.22l2.45,1.41c1.61.93,1.62,2.14-.17,3.17a5.79,5.79,0,0,1-5.87.1l-1.57-.9-4.76,2.75-.7-.4Zm-4.52,3.41,1.5.87a4.34,4.34,0,0,0,4.57-.12c1.25-.72,1.53-1.64.16-2.43l-1.66-1Z"/><path class="cls-10" d="M535.65,302.4,532,300.3,527.33,303l4,2.31-.76.31L526,303l10.62-6.13,4.51,2.61-.65.37-3.81-2.2-4,2.3,3.63,2.1Z"/><path class="cls-10" d="M541,305.74l-5.11,2.95-.7-.4,10.62-6.13,2.46,1.42c1.69,1,1.51,2-.12,3a5,5,0,0,1-4,.63c.76.81,0,1.52-1.4,2.35l-.42.24a12.93,12.93,0,0,0-2.14,1.42l-.73-.42a14.17,14.17,0,0,1,2.18-1.43l.35-.19c1.57-.91,2.15-1.59.57-2.5Zm.65-.37,1.65.95a3.89,3.89,0,0,0,4.11-.18c1.16-.68,1.47-1.46.17-2.21l-1.72-1Z"/><path class="cls-10" d="M556.46,308.31l-10.61,6.13-.7-.4,10.62-6.13Z"/><path class="cls-10" d="M560.89,317l-3.63-2.09-4.69,2.7,4,2.31-.76.31-4.59-2.65,10.62-6.13,4.51,2.61-.65.37-3.81-2.2-4,2.3,3.62,2.1Z"/><path class="cls-10" d="M560.43,322.86,571,316.73l1,.57c-4.88,6.75-5.4,7.51-5.68,7.84h0q2.19-1.38,4.77-2.86l4.77-2.76.71.41L566,326.07l-.93-.54c5.11-7,5.63-7.75,5.9-8h0c-1.26.82-3.1,1.9-5,3l-4.8,2.77Z"/><path class="cls-10" d="M579.29,330.47c-.71.36-3.34,1.52-5.68.17-2.7-1.56.37-3.49,2.73-4.85,2.87-1.66,6-2.68,8.31-1.37s.11,2.82-.4,3.13l-.73-.42c.35-.21,2.13-1.35.44-2.32-2-1.15-5,.34-6.86,1.4-2.39,1.38-4.62,3-2.78,4.06,1.59.92,3.58.11,4.24-.22Z"/><path class="cls-10" d="M590.83,334.26l-3.62-2.1-4.69,2.71,4,2.31-.76.31-4.59-2.65,10.62-6.13,4.51,2.6-.64.38-3.82-2.2-4,2.3,3.63,2.09Z"/><path class="cls-10" d="M564.8,253.23l-3.62-2.09-4.69,2.7,4,2.31-.76.31-4.58-2.65,10.61-6.13,4.51,2.61-.64.37-3.82-2.2-4,2.3,3.63,2.1Z"/><path class="cls-10" d="M575,253l2.1,1.22c2.27,1.31,1.71,2.93-1.6,4.84-3.61,2.09-6.6,2.68-9.2,1.18l-1.92-1.11Zm-9.28,6.16,1.16.67c2.23,1.29,4.72.64,7.84-1.16s3.51-3.06,1.51-4.21l-1.18-.68Z"/><path class="cls-10" d="M586.07,259.41l-7.54,4.35c-1.36.79-2.17,1.74-.62,2.63s3,.55,4.58-.36l7.53-4.34.7.4-7.54,4.36c-1.95,1.12-3.91,1.47-5.95.3s-1.44-2.23.48-3.34l7.65-4.41Z"/><path class="cls-10" d="M593.32,272.57c-.71.36-3.34,1.52-5.67.17-2.71-1.56.36-3.48,2.73-4.85,2.86-1.65,6-2.68,8.3-1.36s.11,2.81-.39,3.12l-.73-.42c.34-.21,2.12-1.35.43-2.32-2-1.14-5,.34-6.86,1.4-2.39,1.38-4.62,3-2.78,4.06,1.6.92,3.58.11,4.25-.22Z"/><path class="cls-10" d="M599.91,275.26l-4.74,1.66-.69-.4,13.25-4.61.9.52-7.88,7.72-.76-.44,2.87-2.75Zm3.42,1.23c2.22-2.15,3.54-3.44,4.16-3.94h0c-1,.42-3.65,1.35-6.73,2.44Z"/><path class="cls-10" d="M615.58,277.19l-2.43-1.4.65-.37,5.55,3.2-.64.38-2.43-1.4-10,5.75-.7-.4Z"/><path class="cls-10" d="M624.36,281.51l-10.62,6.13-.7-.4,10.62-6.13Z"/><path class="cls-10" d="M629.93,290.75c-3.45,2-6.29,2.77-8.49,1.5s-.89-2.83,2.61-4.85,6.31-2.59,8.32-1.42S633.48,288.7,629.93,290.75Zm-5.12-2.95c-3.35,1.94-4.14,3.26-2.69,4.1s3.72.37,7-1.55c3.49-2,4-3.18,2.55-4S628,285.94,624.81,287.8Z"/><path class="cls-10" d="M629.47,296.72l10.62-6.12,1,.56c-4.89,6.75-5.41,7.52-5.69,7.84h0c1.45-.91,3-1.87,4.76-2.86l4.78-2.76.7.41L635,299.93l-.93-.53c5.1-7,5.62-7.76,5.89-8h0c-1.26.82-3.09,1.9-5,3l-4.8,2.76Z"/><path class="cls-10" d="M91.09,9.61c-.71.36-3.34,1.52-5.67.17-2.71-1.56.36-3.48,2.73-4.85,2.86-1.65,6-2.68,8.31-1.36s.1,2.81-.4,3.12l-.73-.42c.34-.21,2.12-1.35.43-2.32-2-1.14-5,.34-6.85,1.4-2.4,1.38-4.63,3-2.79,4.06,1.6.92,3.58.11,4.25-.22Z"/><path class="cls-10" d="M104,14.07c-3.45,2-6.29,2.78-8.49,1.51s-.9-2.83,2.61-4.86,6.3-2.58,8.32-1.42S107.49,12,104,14.07Zm-5.12-2.94c-3.35,1.93-4.14,3.26-2.7,4.09s3.73.37,7.05-1.54c3.48-2,4-3.19,2.55-4S102.05,9.27,98.83,11.13Z"/><path class="cls-10" d="M103.49,20.05l10.61-6.13,1,.56c-4.88,6.75-5.4,7.52-5.68,7.85h0q2.19-1.38,4.77-2.86L119,16.72l.71.41L109,23.26l-.93-.54c5.11-7,5.63-7.75,5.89-8h0c-1.26.82-3.1,1.89-5,3l-4.8,2.77Z"/><path class="cls-10" d="M125.64,21.32l-2.43-1.4.64-.37,5.56,3.21-.65.37-2.43-1.4-10,5.75-.69-.4Z"/><path class="cls-10" d="M126.74,29.07,122,30.74l-.69-.4,13.24-4.61.91.52L127.58,34l-.76-.44,2.87-2.74Zm3.42,1.23c2.22-2.15,3.54-3.43,4.15-3.93l0,0c-1,.43-3.65,1.36-6.74,2.44Z"/><path class="cls-10" d="M140,37.83c-.71.36-3.34,1.51-5.67.17-2.71-1.57.36-3.49,2.73-4.85,2.86-1.66,6-2.68,8.31-1.37s.1,2.82-.4,3.13l-.73-.42c.34-.22,2.12-1.35.43-2.33-2-1.14-5,.35-6.85,1.41-2.4,1.38-4.63,3-2.79,4,1.6.92,3.58.12,4.25-.21Z"/><path class="cls-10" d="M153.28,37.28l-2.43-1.4.64-.37,5.56,3.2-.65.38L154,37.68l-10,5.76-.7-.4Z"/><path class="cls-10" d="M153.26,45.7c-1.14.75-1.44,1.66-.15,2.4a3.77,3.77,0,0,0,4-.11c1.27-.74,1.45-1.38.67-2.68s-.84-2.18.67-3.05a5.08,5.08,0,0,1,4.92,0c1.84,1.06,1,2.16-.14,2.85l-.69-.4c.4-.29,1.69-1.21.14-2.11a3.46,3.46,0,0,0-3.45.05c-1.18.68-1.21,1.3-.49,2.49.94,1.57.6,2.42-.86,3.26a5.36,5.36,0,0,1-5.47.08c-1.93-1.11-1.32-2.24.1-3.17Z"/><path class="cls-10" d="M28.16,45.31c-3.46,2-6.29,2.78-8.5,1.51S18.77,44,22.27,42s6.31-2.58,8.32-1.42S31.7,43.26,28.16,45.31ZM23,42.37c-3.35,1.93-4.14,3.26-2.69,4.09s3.72.37,7-1.54c3.49-2,4-3.19,2.55-4S26.26,40.51,23,42.37Z"/><path class="cls-10" d="M38.31,45.16l2.46,1.42c1.43.83,1.48,1.9-.13,2.83A4.66,4.66,0,0,1,37,50c.57.64.68,1.6-1,2.56a6,6,0,0,1-6,.14l-2.36-1.36ZM29,51.33l1.61.93a4.55,4.55,0,0,0,4.64-.14c1.63-.94,1.48-1.89-.06-2.78l-1.38-.79ZM35.87,49a3.71,3.71,0,0,0,4,0c1.15-.67,1.34-1.48.12-2.19l-1.61-.93-3.92,2.27Z"/><path class="cls-10" d="M41.48,56.49c-1.26.72-2.63,1.4-4.3.44a4.92,4.92,0,0,1-.66-.45l.63-.37a6.37,6.37,0,0,0,.64.43c1,.54,1.74.27,2.89-.39L49,51.34l.7.4Z"/><path class="cls-10" d="M54.06,60.35l-3.63-2.09L45.75,61l4,2.31-.76.31L44.4,60.94,55,54.81l4.51,2.6-.64.38-3.82-2.21-4,2.31L54.71,60Z"/><path class="cls-10" d="M61.63,67.6c-.72.36-3.34,1.52-5.68.17-2.7-1.56.37-3.49,2.73-4.85,2.87-1.66,6-2.68,8.31-1.37s.11,2.82-.4,3.13l-.73-.42c.35-.22,2.13-1.35.44-2.32-2-1.15-5,.34-6.86,1.4-2.39,1.38-4.62,3-2.78,4.06,1.59.92,3.58.11,4.24-.22Z"/><path class="cls-10" d="M74.94,67.05l-2.43-1.4.65-.37,5.55,3.21-.64.37-2.43-1.4-10,5.75-.7-.4Z"/><path class="cls-10" d="M83.71,71.37,73.1,77.5l-.7-.4L83,71Z"/><path class="cls-10" d="M80.26,81.64l8-7.64.74.43-4.07,3.85c-1.15,1.1-2.71,2.55-3.52,3.18l0,0c1-.39,3.7-1.3,5.66-2l6.74-2.3.71.41-13.4,4.52Z"/><path class="cls-10" d="M98,85.7l-3.63-2.1-4.69,2.71,4,2.31-.75.31L88.3,86.28l10.62-6.13,4.51,2.6-.65.38L99,80.93l-4,2.3,3.62,2.09Z"/><path class="cls-10" d="M7.9,79.78c-1.14.75-1.44,1.65-.15,2.4a3.77,3.77,0,0,0,4-.12c1.27-.73,1.46-1.38.68-2.67s-.84-2.18.67-3.06a5.08,5.08,0,0,1,4.92,0c1.83,1.06,1,2.16-.14,2.85l-.7-.41c.41-.29,1.7-1.21.15-2.1a3.44,3.44,0,0,0-3.45,0c-1.18.67-1.21,1.3-.49,2.49.94,1.56.6,2.41-.86,3.25a5.38,5.38,0,0,1-5.47.09c-1.93-1.12-1.32-2.25.1-3.17Z"/><path class="cls-10" d="M25.25,80.62l.7.4-5.55,3.2c2-.16,6.7-.6,9.62-.85l.79.46-7.62.67L20.31,90l-.83-.47,2.66-5-2.69.2-4.12,2.38-.7-.4Z"/><path class="cls-10" d="M35.74,86.67,25.12,92.8l-.7-.4L35,86.27Z"/><path class="cls-10" d="M41.12,89.78l.7.4-10,5.76,3.9,2.25-.8.28L30.5,95.91Z"/><path class="cls-10" d="M50,94.89l.7.4-10,5.76,3.89,2.25-.8.28L39.36,101Z"/><path class="cls-10" d="M51.15,104.74c-1.15.76-1.45,1.66-.16,2.4a3.77,3.77,0,0,0,4-.11c1.27-.74,1.45-1.38.67-2.68s-.84-2.18.67-3a5.08,5.08,0,0,1,4.92,0c1.84,1.06,1,2.16-.14,2.85l-.69-.4c.41-.29,1.69-1.21.14-2.1a3.44,3.44,0,0,0-3.45,0c-1.17.68-1.21,1.31-.49,2.49.94,1.57.6,2.42-.86,3.26a5.36,5.36,0,0,1-5.47.08c-1.93-1.11-1.32-2.24.1-3.17Z"/><path class="cls-10" d="M412.48,334.18l.69.41-4.66,2.69,4,2.31,4.67-2.69.7.4-10.62,6.13-.7-.4,5.31-3.06-4-2.32-5.3,3.06-.7-.4Z"/><path class="cls-10" d="M423.46,346.54c-3.46,2-6.29,2.78-8.49,1.5s-.9-2.83,2.61-4.85,6.3-2.58,8.32-1.42S427,344.49,423.46,346.54Zm-5.12-2.94c-3.35,1.93-4.14,3.26-2.7,4.09s3.73.37,7.05-1.55c3.48-2,4-3.18,2.55-4S421.56,341.73,418.34,343.6Z"/><path class="cls-10" d="M423,352.52l10.61-6.13,1,.56c-4.88,6.75-5.4,7.52-5.68,7.84h0c1.46-.91,3.05-1.87,4.77-2.86l4.77-2.75.71.4-10.62,6.13-.93-.53c5.11-7,5.63-7.75,5.9-8h0c-1.26.81-3.1,1.89-5,3l-4.8,2.77Z"/><path class="cls-10" d="M444.74,358.82c-3.46,2-6.29,2.78-8.5,1.51s-.89-2.83,2.61-4.85,6.31-2.59,8.33-1.43S448.28,356.78,444.74,358.82Zm-5.13-2.94c-3.35,1.93-4.13,3.26-2.69,4.09s3.72.38,7-1.54c3.49-2,4-3.19,2.56-4S442.84,354,439.61,355.88Z"/><path class="cls-10" d="M450.09,362.25,445,365.2l-.69-.4,10.61-6.13,2.47,1.43c1.69,1,1.51,2-.12,3a5.08,5.08,0,0,1-4,.62c.75.81,0,1.52-1.41,2.35l-.42.24a13,13,0,0,0-2.13,1.42l-.73-.42a12.67,12.67,0,0,1,2.18-1.42l.34-.2c1.58-.91,2.16-1.59.58-2.5Zm.64-.37,1.65.95a3.89,3.89,0,0,0,4.11-.18c1.17-.67,1.48-1.46.17-2.21l-1.71-1Z"/><path class="cls-10" d="M396.4,350.64l-6.14,1.41c-2.15.49-3.69.58-4.94-.14-1.52-.88-1-1.94.57-2.85,1.37-.79,2.82-1,5.19-.75s3.39.16,4.55-.51c.85-.49,1.24-1.05.33-1.58a3,3,0,0,0-2.93.28,2.6,2.6,0,0,0-1.48,1.92l-1.23,6.23-.89-.51,1.16-5.79a3.1,3.1,0,0,1,1.76-2.24,4.42,4.42,0,0,1,4.26-.23c1.29.74.92,1.61-.24,2.28-1.5.87-2.84.88-5.41.62a6.46,6.46,0,0,0-4.32.69c-1.28.74-1.57,1.55-.65,2.08s2.2.45,4.42-.07l5.28-1.25Z"/><path class="cls-10" d="M406.81,358.26l-5.12,2.95-.7-.4,10.62-6.13,2.46,1.43c1.69,1,1.51,2-.11,3a5.1,5.1,0,0,1-4,.62c.76.81,0,1.52-1.4,2.35l-.42.24a13.6,13.6,0,0,0-2.14,1.42l-.72-.42a12.67,12.67,0,0,1,2.18-1.42l.34-.2c1.57-.91,2.16-1.59.57-2.5Zm.64-.37,1.65.95a3.89,3.89,0,0,0,4.11-.18c1.17-.67,1.47-1.46.17-2.21l-1.72-1Z"/><path class="cls-10" d="M420.61,366,417,363.89l-4.69,2.7,4,2.31-.76.31L411,366.56l10.62-6.13,4.51,2.61-.65.37-3.81-2.2-4,2.3,3.63,2.1Z"/><path class="cls-10" d="M421.74,372.79l8.48-7.36.73.42c-3.67,3.17-6.83,5.91-7.83,6.63h0c1.23-.58,8.45-3.21,11.65-4.43l.75.43c-2.1,1.84-6.8,6.07-7.69,6.7l0,0c1.85-.82,8.43-3.19,11.64-4.42l.71.41-13,4.78-.84-.48c2-1.77,6.6-5.81,7.72-6.65h0c-1.68.73-8.42,3.23-11.59,4.41Z"/><path class="cls-10" d="M438.12,377.85l-4.74,1.66-.7-.4,13.25-4.61.91.52L439,382.73l-.76-.44,2.87-2.74Zm3.42,1.23c2.22-2.16,3.54-3.44,4.15-3.94l0,0c-1,.43-3.65,1.36-6.74,2.45Z"/><path class="cls-10" d="M449.22,382.75l-5.12,2.95-.69-.4L454,379.17l2.46,1.42c1.69,1,1.51,2-.12,3a5,5,0,0,1-4,.63c.76.81,0,1.52-1.4,2.35l-.43.24a13.44,13.44,0,0,0-2.13,1.42l-.73-.42a13.08,13.08,0,0,1,2.18-1.42l.35-.2c1.57-.91,2.15-1.59.57-2.5Zm.64-.37,1.66.95a3.89,3.89,0,0,0,4.11-.18c1.16-.68,1.47-1.46.17-2.21l-1.72-1Z"/><path class="cls-10" d="M464,384.92l2.1,1.22c2.27,1.31,1.71,2.93-1.6,4.84-3.62,2.08-6.61,2.68-9.2,1.18l-1.92-1.11Zm-9.28,6.16,1.16.67c2.23,1.29,4.72.64,7.83-1.16s3.51-3.06,1.51-4.21L464,385.7Z"/><path class="cls-10" d="M466.48,395.54c-1.14.75-1.44,1.65-.15,2.4a3.77,3.77,0,0,0,4-.12c1.27-.73,1.46-1.38.68-2.67s-.84-2.19.67-3.06a5.08,5.08,0,0,1,4.92,0c1.83,1.06,1,2.16-.14,2.84l-.7-.4c.41-.29,1.7-1.21.15-2.1a3.47,3.47,0,0,0-3.45,0c-1.18.68-1.21,1.31-.49,2.5.93,1.56.6,2.41-.86,3.25a5.38,5.38,0,0,1-5.47.09c-1.93-1.12-1.32-2.25.1-3.17Z"/><path class="cls-10" d="M467,304.51l-4.73,1.67-.7-.4,13.25-4.62.9.53-7.87,7.71-.77-.44,2.87-2.74Zm3.42,1.23c2.22-2.15,3.54-3.43,4.16-3.93l0,0c-1,.42-3.65,1.36-6.73,2.44Z"/><path class="cls-10" d="M480.21,313.26c-.72.36-3.35,1.52-5.68.17-2.71-1.56.36-3.48,2.73-4.85,2.86-1.65,6-2.68,8.31-1.36s.1,2.82-.4,3.13l-.73-.42c.34-.22,2.12-1.35.44-2.33-2-1.14-5,.34-6.86,1.4-2.4,1.39-4.63,3-2.79,4.06,1.6.92,3.58.11,4.25-.22Z"/><path class="cls-10" d="M493.52,312.72l-2.43-1.4.64-.38,5.56,3.21-.65.37-2.43-1.4-10,5.76-.69-.4Z"/><path class="cls-10" d="M502.29,317l-10.62,6.13-.69-.4,10.61-6.14Z"/><path class="cls-10" d="M498.83,327.3l8-7.64.75.43L503.51,324c-1.16,1.09-2.71,2.54-3.52,3.17l0,0c1-.39,3.7-1.29,5.65-2l6.74-2.3.72.41-13.41,4.52Z"/><path class="cls-10" d="M518.19,326.22l-10.62,6.13-.69-.4,10.61-6.13Z"/><path class="cls-10" d="M524.18,330.42l-2.43-1.4.65-.37,5.55,3.2-.65.38-2.42-1.41-10,5.76-.7-.4Z"/><path class="cls-10" d="M531.3,339.88l-3.63-2.09L523,340.5l4,2.31-.75.31-4.59-2.65,10.61-6.13,4.52,2.6-.65.38-3.81-2.21-4,2.31,3.62,2.09Z"/><path class="cls-10" d="M533.77,344.39c-1.15.75-1.44,1.65-.16,2.4a3.79,3.79,0,0,0,4-.12c1.27-.73,1.46-1.38.68-2.67s-.85-2.19.67-3.06a5.1,5.1,0,0,1,4.92,0c1.83,1.06,1,2.17-.14,2.85l-.7-.4c.41-.29,1.69-1.21.15-2.1a3.49,3.49,0,0,0-3.46,0c-1.17.68-1.2,1.31-.49,2.49.94,1.57.61,2.42-.85,3.26a5.4,5.4,0,0,1-5.48.09c-1.93-1.12-1.31-2.25.11-3.18Z"/><path class="cls-10" d="M506.78,285.73l-3.63-2.09-4.69,2.7,4,2.31-.76.31-4.59-2.65,10.62-6.13,4.51,2.61-.64.37-3.82-2.2-4,2.3,3.63,2.1Z"/><path class="cls-10" d="M511.12,294.39l2.64-4.11h0l-7.14,1.52-.74-.43,8.13-1.69,2.62-4.36.8.46-2.32,3.74h0l6.53-1.31.76.44-7.53,1.43-3,4.77Z"/><path class="cls-10" d="M526.85,291.22l2.45,1.41c1.61.93,1.62,2.14-.17,3.17a5.79,5.79,0,0,1-5.87.1l-1.57-.9-4.76,2.75-.7-.4Zm-4.52,3.41,1.5.87a4.34,4.34,0,0,0,4.57-.12c1.25-.72,1.53-1.64.16-2.43l-1.66-1Z"/><path class="cls-10" d="M535.65,302.4,532,300.3,527.33,303l4,2.31-.76.31L526,303l10.62-6.13,4.51,2.61-.65.37-3.81-2.2-4,2.3,3.63,2.1Z"/><path class="cls-10" d="M541,305.74l-5.11,2.95-.7-.4,10.62-6.13,2.46,1.42c1.69,1,1.51,2-.12,3a5,5,0,0,1-4,.63c.76.81,0,1.52-1.4,2.35l-.42.24a12.93,12.93,0,0,0-2.14,1.42l-.73-.42a14.17,14.17,0,0,1,2.18-1.43l.35-.19c1.57-.91,2.15-1.59.57-2.5Zm.65-.37,1.65.95a3.89,3.89,0,0,0,4.11-.18c1.16-.68,1.47-1.46.17-2.21l-1.72-1Z"/><path class="cls-10" d="M556.46,308.31l-10.61,6.13-.7-.4,10.62-6.13Z"/><path class="cls-10" d="M560.89,317l-3.63-2.09-4.69,2.7,4,2.31-.76.31-4.59-2.65,10.62-6.13,4.51,2.61-.65.37-3.81-2.2-4,2.3,3.62,2.1Z"/><path class="cls-10" d="M560.43,322.86,571,316.73l1,.57c-4.88,6.75-5.4,7.51-5.68,7.84h0q2.19-1.38,4.77-2.86l4.77-2.76.71.41L566,326.07l-.93-.54c5.11-7,5.63-7.75,5.9-8h0c-1.26.82-3.1,1.9-5,3l-4.8,2.77Z"/><path class="cls-10" d="M579.29,330.47c-.71.36-3.34,1.52-5.68.17-2.7-1.56.37-3.49,2.73-4.85,2.87-1.66,6-2.68,8.31-1.37s.11,2.82-.4,3.13l-.73-.42c.35-.21,2.13-1.35.44-2.32-2-1.15-5,.34-6.86,1.4-2.39,1.38-4.62,3-2.78,4.06,1.59.92,3.58.11,4.24-.22Z"/><path class="cls-10" d="M590.83,334.26l-3.62-2.1-4.69,2.71,4,2.31-.76.31-4.59-2.65,10.62-6.13,4.51,2.6-.64.38-3.82-2.2-4,2.3,3.63,2.09Z"/><path class="cls-10" d="M564.8,253.23l-3.62-2.09-4.69,2.7,4,2.31-.76.31-4.58-2.65,10.61-6.13,4.51,2.61-.64.37-3.82-2.2-4,2.3,3.63,2.1Z"/><path class="cls-10" d="M575,253l2.1,1.22c2.27,1.31,1.71,2.93-1.6,4.84-3.61,2.09-6.6,2.68-9.2,1.18l-1.92-1.11Zm-9.28,6.16,1.16.67c2.23,1.29,4.72.64,7.84-1.16s3.51-3.06,1.51-4.21l-1.18-.68Z"/><path class="cls-10" d="M586.07,259.41l-7.54,4.35c-1.36.79-2.17,1.74-.62,2.63s3,.55,4.58-.36l7.53-4.34.7.4-7.54,4.36c-1.95,1.12-3.91,1.47-5.95.3s-1.44-2.23.48-3.34l7.65-4.41Z"/><path class="cls-10" d="M593.32,272.57c-.71.36-3.34,1.52-5.67.17-2.71-1.56.36-3.48,2.73-4.85,2.86-1.65,6-2.68,8.3-1.36s.11,2.81-.39,3.12l-.73-.42c.34-.21,2.12-1.35.43-2.32-2-1.14-5,.34-6.86,1.4-2.39,1.38-4.62,3-2.78,4.06,1.6.92,3.58.11,4.25-.22Z"/><path class="cls-10" d="M599.91,275.26l-4.74,1.66-.69-.4,13.25-4.61.9.52-7.88,7.72-.76-.44,2.87-2.75Zm3.42,1.23c2.22-2.15,3.54-3.44,4.16-3.94h0c-1,.42-3.65,1.35-6.73,2.44Z"/><path class="cls-10" d="M615.58,277.19l-2.43-1.4.65-.37,5.55,3.2-.64.38-2.43-1.4-10,5.75-.7-.4Z"/><path class="cls-10" d="M624.36,281.51l-10.62,6.13-.7-.4,10.62-6.13Z"/><path class="cls-10" d="M629.93,290.75c-3.45,2-6.29,2.77-8.49,1.5s-.89-2.83,2.61-4.85,6.31-2.59,8.32-1.42S633.48,288.7,629.93,290.75Zm-5.12-2.95c-3.35,1.94-4.14,3.26-2.69,4.1s3.72.37,7-1.55c3.49-2,4-3.18,2.55-4S628,285.94,624.81,287.8Z"/><path class="cls-10" d="M629.47,296.72l10.62-6.12,1,.56c-4.89,6.75-5.41,7.52-5.69,7.84h0c1.45-.91,3-1.87,4.76-2.86l4.78-2.76.7.41L635,299.93l-.93-.53c5.1-7,5.62-7.76,5.89-8h0c-1.26.82-3.09,1.9-5,3l-4.8,2.76Z"/></g></g></svg>