<svg xmlns="http://www.w3.org/2000/svg" xmlns:xlink="http://www.w3.org/1999/xlink" viewBox="0 0 905.74 502.33"><defs><style>.cls-1{fill:url(#linear-gradient);}.cls-2{fill:url(#linear-gradient-2);}.cls-3{fill:url(#linear-gradient-3);}.cls-4{fill:url(#linear-gradient-4);}.cls-5{fill:url(#linear-gradient-5);}.cls-6{fill:url(#linear-gradient-6);}.cls-7{fill:none;stroke:#0075f4;stroke-miterlimit:10;stroke-width:4px;stroke-dasharray:8 8;}.cls-8{fill:#fff;}.cls-9{fill:#0075f4;}.cls-10{fill:#0071bc;}</style><linearGradient id="linear-gradient" x1="547.77" y1="-35.71" x2="416.75" y2="70.14" gradientUnits="userSpaceOnUse"><stop offset="0" stop-color="#4032a1"/><stop offset="1" stop-color="#1697bb"/></linearGradient><linearGradient id="linear-gradient-2" x1="386.58" y1="47.96" x2="505.02" y2="184.16" xlink:href="#linear-gradient"/><linearGradient id="linear-gradient-3" x1="520.34" y1="-32.55" x2="402.16" y2="107.11" xlink:href="#linear-gradient"/><linearGradient id="linear-gradient-4" x1="549.27" y1="-0.97" x2="374.83" y2="103.89" xlink:href="#linear-gradient"/><linearGradient id="linear-gradient-5" x1="441.57" y1="71.15" x2="473.83" y2="119.77" xlink:href="#linear-gradient"/><linearGradient id="linear-gradient-6" x1="404.13" y1="45.56" x2="488.02" y2="142.77" xlink:href="#linear-gradient"/></defs><g id="Layer_2" data-name="Layer 2"><g id="Layer_1-2" data-name="Layer 1"><path class="cls-1" d="M496.22,30.92a31.19,31.19,0,0,1-.62,6.23v0a31,31,0,0,1-16.68,21.51,40.64,40.64,0,0,0-39.58-10.92,31,31,0,0,1-3.25-27h0a30.92,30.92,0,0,1,60.11,10.2Z"/><path class="cls-2" d="M505.88,124.86v27.06a12.38,12.38,0,0,1-12.37,12.37H440.94a12.39,12.39,0,0,1-12.37-12.37v-.72a67.69,67.69,0,0,0,77.31-26.34Z"/><path class="cls-3" d="M449.83,19.33a68.07,68.07,0,0,0-13.72,1.39h0a31,31,0,0,0,3.25,27,40.64,40.64,0,0,1,39.58,10.92A31,31,0,0,0,495.6,37.17v0A67.45,67.45,0,0,0,449.83,19.33Z"/><path class="cls-4" d="M478.92,58.68a30.93,30.93,0,0,1-39.58-10.92,40.64,40.64,0,0,1,39.58,10.92Z"/><path class="cls-5" d="M490.42,87a40.59,40.59,0,0,1-61.85,34.57v-21a38,38,0,0,1,.62-6.87,38.68,38.68,0,0,1,55.35-27.71v0A40.21,40.21,0,0,1,490.42,87Z"/><path class="cls-6" d="M505.88,100.51v24.35a67.69,67.69,0,0,1-77.31,26.34V121.55a40.58,40.58,0,0,0,56-55.6,38.73,38.73,0,0,1,21.34,34.56Z"/><line class="cls-7" x1="394.87" y1="101.95" x2="210.35" y2="102.43"/><path class="cls-8" d="M394.65,98.19A3.76,3.76,0,1,1,390.9,102,3.75,3.75,0,0,1,394.65,98.19Z"/><path class="cls-9" d="M394.65,97.69a4.26,4.26,0,1,0,4.27,4.25,4.26,4.26,0,0,0-4.27-4.25Zm0,7.52a3.26,3.26,0,1,1,3.25-3.27,3.27,3.27,0,0,1-3.25,3.27Z"/><path class="cls-8" d="M210.55,98.67a3.76,3.76,0,1,0,3.77,3.75A3.75,3.75,0,0,0,210.55,98.67Z"/><path class="cls-9" d="M210.55,98.17a4.26,4.26,0,1,1-4.25,4.27,4.26,4.26,0,0,1,4.25-4.27C212.9,98.16,208.2,98.17,210.55,98.17Zm0,7.52a3.26,3.26,0,1,0-3.27-3.25,3.27,3.27,0,0,0,3.27,3.25Z"/><path class="cls-7" d="M531,101.94h96.71a14.72,14.72,0,0,0,14.71-14.72V61.1a14.72,14.72,0,0,1,14.72-14.71H768.56"/><circle class="cls-8" cx="531.24" cy="101.94" r="3.76"/><path class="cls-9" d="M531.24,106.2a4.26,4.26,0,1,0-4.26-4.26,4.27,4.27,0,0,0,4.26,4.26Zm0-7.52a3.26,3.26,0,1,1-3.26,3.26,3.26,3.26,0,0,1,3.26-3.26Z"/><circle class="cls-8" cx="768.35" cy="46.39" r="3.76"/><path class="cls-9" d="M768.35,50.65a4.26,4.26,0,1,1,4.26-4.26,4.26,4.26,0,0,1-4.26,4.26Zm0-7.52a3.26,3.26,0,1,0,3.26,3.26,3.26,3.26,0,0,0-3.26-3.26Z"/><path class="cls-7" d="M395,307.73V251.39a15.59,15.59,0,0,1,15.59-15.59h41.08a15.59,15.59,0,0,0,15.59-15.59V178"/><path class="cls-8" d="M398.73,307.52a3.76,3.76,0,1,1-3.76-3.76A3.76,3.76,0,0,1,398.73,307.52Z"/><path class="cls-9" d="M399.23,307.52a4.26,4.26,0,1,0-4.26,4.26,4.26,4.26,0,0,0,4.26-4.26Zm-7.52,0a3.26,3.26,0,1,1,3.26,3.26,3.27,3.27,0,0,1-3.26-3.26Z"/><path class="cls-8" d="M471,178.21a3.76,3.76,0,1,0-3.76,3.76A3.76,3.76,0,0,0,471,178.21Z"/><path class="cls-9" d="M471.49,178.21a4.26,4.26,0,1,1-4.26-4.26,4.26,4.26,0,0,1,4.26,4.26Zm-7.52,0a3.26,3.26,0,1,0,3.26-3.26,3.26,3.26,0,0,0-3.26,3.26Z"/><path class="cls-10" d="M790.67,47.7c.17,2.73,1.59,4.81,4.46,4.81s4.28-1.39,4.28-4.73c0-2.83-1-4.28-4.41-5.91s-5.16-3.28-5.16-6.66a5.21,5.21,0,0,1,5.46-5.51c4.1,0,5.28,3.07,5.35,5.65H799.1c-.11-1-.46-4.22-3.91-4.22-2.65,0-3.76,1.86-3.76,3.94,0,2.62,1.18,3.86,4.26,5.35,4.08,2,5.35,4,5.35,7.25,0,3.76-2,6.28-5.95,6.28-4.3,0-5.8-2.87-6-6.25Z"/><path class="cls-10" d="M811.65,30h1.56V42.36c1.93-2.57,6.32-8.64,9.08-12.38h1.78l-7.21,9.79,7.45,13.89h-1.84l-6.66-12.58-2.6,3.4v9.18h-1.56Z"/><path class="cls-10" d="M835.06,30V53.66H833.5V30Z"/><path class="cls-10" d="M847.07,30h1.55V52.23h8.69L857,53.66h-9.89Z"/><path class="cls-10" d="M866.83,30h1.56V52.23h8.68l-.35,1.43h-9.89Z"/><path class="cls-10" d="M887.18,47.7c.17,2.73,1.58,4.81,4.45,4.81s4.29-1.39,4.29-4.73c0-2.83-1-4.28-4.41-5.91s-5.16-3.28-5.16-6.66a5.21,5.21,0,0,1,5.45-5.51c4.1,0,5.29,3.07,5.36,5.65H895.6c-.1-1-.45-4.22-3.9-4.22-2.66,0-3.76,1.86-3.76,3.94,0,2.62,1.17,3.86,4.26,5.35,4.08,2,5.34,4,5.34,7.25,0,3.76-2,6.28-5.94,6.28-4.31,0-5.81-2.87-6-6.25Z"/><path class="cls-10" d="M403.87,318.77v1.55H391.5c2.56,1.94,8.63,6.32,12.37,9.09v1.77L394.08,324l-13.89,7.45v-1.84l12.59-6.66-3.4-2.6h-9.19v-1.55Z"/><path class="cls-10" d="M380.19,340.62h23.68v2.18c-18.49,7.59-20.55,8.49-21.49,8.81v0c3.39-.14,7-.21,10.84-.21h10.65V353H380.19v-2.07c19.29-7.9,21.25-8.71,22.09-8.95v0c-3,.18-7.12.21-11.39.21h-10.7Z"/><path class="cls-10" d="M392.25,377.06c-7.7,0-12.38-1.65-12.38-6.57,0-4.74,4.47-6.46,12.28-6.46s12,2,12,6.54C404.19,375.31,400.16,377.06,392.25,377.06Zm0-11.4c-7.47,0-10.91,1.69-10.91,4.9s3.44,4.88,10.84,4.88c7.78,0,10.6-1.72,10.6-4.91S399.42,365.66,392.22,365.66Z"/><path class="cls-10" d="M380.19,391.13l23.68-4.76V388c-10.22,2-19,3.79-21.55,4.06v0c2.48.25,15.62,3.22,21.55,4.43v1.68c-5.88,1.21-19.3,4.14-21.51,4.36v.07c3.65.48,15.56,3.24,21.51,4.44v1.59l-23.68-5.21V401.6c5.68-1.14,18.57-3.86,21.46-4.25v0c-3.3-.45-15.65-3.14-21.46-4.39Z"/><path class="cls-10" d="M403.87,418.51v1.56H381.62v8.68l-1.43-.35v-9.89Z"/><path class="cls-10" d="M388.69,440.85l-8.5-2.06v-1.56l23.68,5.87v2l-23.68,6.11v-1.7l8.5-2.1Zm1.44,6.2c6.63-1.69,10.58-2.69,12.23-3V444c-2-.35-6.69-1.45-12.23-2.8Z"/><path class="cls-10" d="M380.19,472.7v-1.3a24.42,24.42,0,0,1,2.9-.14c-1.51-.6-3.22-1.49-3.22-4.76,0-5.25,5.85-6.31,12.21-6.31,7.84,0,12.11,2.24,12.11,6.88,0,5.21-4.75,5.59-6.17,5.66v-1.59c.77-.07,4.73-.24,4.73-4.11s-4.13-5.18-10.6-5.18c-6.18,0-10.84,1-10.84,4.77s3.27,4.56,9.16,4.56h1v-4.7H393v6.22Z"/><path class="cls-10" d="M392.09,493.88v-8.1H381.63v8.93l-1.44-.25V484.23h23.68v10.06h-1.44v-8.51h-8.9v8.1Z"/><path class="cls-10" d="M12.18,103.54H4.08V114H13l-.25,1.44H2.53V91.75H12.59v1.44H4.08v8.91h8.1Z"/><path class="cls-10" d="M33.77,115.44l-5-10.91h0l-5,10.91H22.05l5.8-12.34L22.36,91.75h1.77l4.63,9.8h0l4.76-9.8h1.7l-5.63,11.17,5.91,12.52Z"/><path class="cls-10" d="M45.18,91.75h5.46c3.59,0,5.94,2.33,5.94,6.31s-2.1,6.76-6.35,6.76H46.74v10.62H45.18Zm1.56,11.63h3.34c3.15,0,4.88-1.73,4.88-5.32,0-2.77-1.46-4.87-4.53-4.87H46.74Z"/><path class="cls-10" d="M76.61,103.54h-8.1V114h8.94l-.25,1.44H67V91.75H77v1.44H68.51v8.91h8.1Z"/><path class="cls-10" d="M89,104v11.42H87.49V91.75H93c3.76,0,5.62,2.26,5.62,5.89s-1.67,5.14-3.23,5.63c2.42.73,3,2.91,3,6.12v.94a24.93,24.93,0,0,0,.34,5.11H97.09a25,25,0,0,1-.31-5.18v-.77c0-3.5-.66-5.47-4.19-5.47Zm0-1.43h3.69c3.08,0,4.22-2,4.22-4.94,0-2.6-1.17-4.46-4.08-4.46H89Z"/><path class="cls-10" d="M111.27,91.75v23.69h-1.55V91.75Z"/><path class="cls-10" d="M132.93,103.54h-8.09V114h8.93l-.25,1.44H123.28V91.75h10.07v1.44h-8.51v8.91h8.09Z"/><path class="cls-10" d="M143.81,115.44V91.75H146c7.59,18.49,8.5,20.55,8.81,21.5h0q-.21-5.1-.21-10.84V91.75h1.58v23.69h-2.08c-7.9-19.29-8.7-21.25-8.95-22.09h0c.17,3,.21,7.11.21,11.39v10.7Z"/><path class="cls-10" d="M179.56,109.1c-.11,1.49-.8,6.65-6,6.65-6,0-6.32-7.13-6.32-12.41,0-6.4,1.54-11.9,6.63-11.9,5.35,0,5.56,5.32,5.6,6.48h-1.63c0-.8-.24-5-4-5-4.42,0-4.94,6.27-4.94,10.37,0,5.33.62,10.94,4.73,10.94,3.56,0,4.21-3.77,4.32-5.15Z"/><path class="cls-10" d="M199.76,103.54h-8.09V114h8.93l-.25,1.44H190.12V91.75h10.06v1.44h-8.51v8.91h8.09Z"/></g></g></svg>