<svg xmlns="http://www.w3.org/2000/svg" xmlns:xlink="http://www.w3.org/1999/xlink" viewBox="0 0 315.36 173"><defs><style>.cls-1{fill:url(#linear-gradient);}.cls-2{fill:url(#linear-gradient-2);}.cls-3{fill:#fff;}.cls-4{fill:url(#linear-gradient-3);}.cls-5{fill:url(#linear-gradient-4);}</style><linearGradient id="linear-gradient" x1="-14.73" y1="71.61" x2="157.86" y2="189.06" gradientUnits="userSpaceOnUse"><stop offset="0" stop-color="#3230a1"/><stop offset="1" stop-color="#17b9bb"/></linearGradient><linearGradient id="linear-gradient-2" x1="12.07" y1="26.52" x2="144.33" y2="174.6" xlink:href="#linear-gradient"/><linearGradient id="linear-gradient-3" x1="-20.92" y1="-2.86" x2="125.13" y2="135.01" xlink:href="#linear-gradient"/><linearGradient id="linear-gradient-4" x1="-5.26" y1="-22.34" x2="76.69" y2="115.03" xlink:href="#linear-gradient"/></defs><g id="Layer_2" data-name="Layer 2"><g id="Layer_1-2" data-name="Layer 1"><path class="cls-1" d="M131.28,131.26v21A20.71,20.71,0,0,1,110.58,173H75.9A147.37,147.37,0,0,0,131.28,131.26Z"/><path class="cls-2" d="M119.49,2a107.78,107.78,0,0,1,6.15,36A108,108,0,0,1,69,133h38.6a5,5,0,0,1,0,10H43a108.62,108.62,0,0,1-43,1.56v7.73A20.71,20.71,0,0,0,20.7,173H75.9a147.37,147.37,0,0,0,55.38-41.74V20.71A20.71,20.71,0,0,0,119.49,2ZM92.64,159h-68a5,5,0,1,1,0-10h68a5,5,0,0,1,0,10Z"/><path class="cls-3" d="M97.64,154a5,5,0,0,1-5,5h-68a5,5,0,1,1,0-10h68a5,5,0,0,1,5,5Z"/><path class="cls-3" d="M112.64,138a5,5,0,0,1-5,5h-83a5,5,0,1,1,0-10h83a5,5,0,0,1,5,5Z"/><path class="cls-4" d="M125.64,38A108,108,0,0,1,69,133H24.64a5,5,0,1,0,0,10H43a108.62,108.62,0,0,1-43,1.56V110.91a75.29,75.29,0,0,0,45.64-3.32v9A6.41,6.41,0,0,0,52,123h27.2a6.41,6.41,0,0,0,6.4-6.4V90a19.86,19.86,0,0,0-4.31-12.39A75,75,0,0,0,82.3,0h28.28a20.61,20.61,0,0,1,8.91,2A107.78,107.78,0,0,1,125.64,38Z"/><path class="cls-5" d="M82.3,0H20.7A20.71,20.71,0,0,0,0,20.71v90.2a75.29,75.29,0,0,0,45.64-3.32V90A20,20,0,0,1,81.33,77.61,75,75,0,0,0,82.3,0ZM65.64,68a16,16,0,1,1,16-16A16,16,0,0,1,65.64,68Z"/><circle class="cls-3" cx="65.64" cy="52" r="16"/><path class="cls-3" d="M85.64,90v26.6a6.41,6.41,0,0,1-6.4,6.4H52a6.41,6.41,0,0,1-6.4-6.4V90a20,20,0,0,1,40,0Z"/><path d="M159,34.91v40h-1v-40Z"/><path d="M177.91,74.87v-40h1.44c2.28,7.68,10.5,36.18,11,38.4h.06c-.18-6.3-.12-11.16-.12-17.64V34.91h1v40h-1.44c-1.8-6.12-10.62-36.66-11.1-38.76h-.06c.12,4.8.18,11.34.18,18.66v20.1Z"/><path d="M209.35,65.39V67c0,4.74,1.32,7.5,5.1,7.5,4.08,0,5.1-3.12,5.1-9s-1-8.28-5-11.58c-3.84-3.12-5.34-5.4-5.34-11.46,0-4.92,1.56-8,5.46-8S220,37,220,42.23v1.56h-1V42.23c0-4.74-1.2-6.9-4.38-6.9s-4.38,2.58-4.38,7c0,5.22.84,7.32,4.68,10.44,4.62,3.78,5.7,6.48,5.7,12.66,0,4.92-.54,9.9-6.18,9.9s-6.06-5.1-6.06-8.88V65.39Z"/><path d="M247.51,53.69h-8.46V74h9.54l-.24.9H238v-40h10.14v.9h-9.12v17h8.46Z"/><path d="M265.69,54.41V74.87h-1v-40h4.74c5.22,0,6.78,2.76,6.78,8.52v1.74c0,6.3-1.62,8.16-4.44,8.82,3.06,1,4.14,3.42,4.14,7.68,0,3.48.12,10.92.42,13.2h-1c-.3-1.62-.36-10.2-.42-13.38-.12-5.58-2-7.08-6.12-7.08Zm0-.9h3.24c4.8,0,6.24-2.22,6.24-8.34V43.43c0-4.32-.72-7.62-5.82-7.62h-3.66Z"/><path d="M296.65,35.81h-5.94v-.9h12.9v.9h-5.94V74.87h-1Z"/><path d="M160.15,107.81h-5.94v-.9h12.9v.9h-5.94v39.06h-1Z"/><path d="M183.37,106.91v40h-1v-40Z"/><path d="M204.91,107.81H199v-.9h12.9v.9h-5.94v39.06h-1Z"/><path d="M227.05,106.91h1V146h9.54l-.24.9H227.05Z"/><path d="M262.75,125.69h-8.46V146h9.54l-.24.9H253.27v-40h10.14v.9h-9.12v17h8.46Z"/><path d="M159,34.91v40h-1v-40Z"/><path d="M177.91,74.87v-40h1.44c2.28,7.68,10.5,36.18,11,38.4h.06c-.18-6.3-.12-11.16-.12-17.64V34.91h1v40h-1.44c-1.8-6.12-10.62-36.66-11.1-38.76h-.06c.12,4.8.18,11.34.18,18.66v20.1Z"/><path d="M209.35,65.39V67c0,4.74,1.32,7.5,5.1,7.5,4.08,0,5.1-3.12,5.1-9s-1-8.28-5-11.58c-3.84-3.12-5.34-5.4-5.34-11.46,0-4.92,1.56-8,5.46-8S220,37,220,42.23v1.56h-1V42.23c0-4.74-1.2-6.9-4.38-6.9s-4.38,2.58-4.38,7c0,5.22.84,7.32,4.68,10.44,4.62,3.78,5.7,6.48,5.7,12.66,0,4.92-.54,9.9-6.18,9.9s-6.06-5.1-6.06-8.88V65.39Z"/><path d="M247.51,53.69h-8.46V74h9.54l-.24.9H238v-40h10.14v.9h-9.12v17h8.46Z"/><path d="M265.69,54.41V74.87h-1v-40h4.74c5.22,0,6.78,2.76,6.78,8.52v1.74c0,6.3-1.62,8.16-4.44,8.82,3.06,1,4.14,3.42,4.14,7.68,0,3.48.12,10.92.42,13.2h-1c-.3-1.62-.36-10.2-.42-13.38-.12-5.58-2-7.08-6.12-7.08Zm0-.9h3.24c4.8,0,6.24-2.22,6.24-8.34V43.43c0-4.32-.72-7.62-5.82-7.62h-3.66Z"/><path d="M296.65,35.81h-5.94v-.9h12.9v.9h-5.94V74.87h-1Z"/><path d="M160.15,107.81h-5.94v-.9h12.9v.9h-5.94v39.06h-1Z"/><path d="M183.37,106.91v40h-1v-40Z"/><path d="M204.91,107.81H199v-.9h12.9v.9h-5.94v39.06h-1Z"/><path d="M227.05,106.91h1V146h9.54l-.24.9H227.05Z"/><path d="M262.75,125.69h-8.46V146h9.54l-.24.9H253.27v-40h10.14v.9h-9.12v17h8.46Z"/></g></g></svg>